<svg xmlns="http://www.w3.org/2000/svg" xmlns:xlink="http://www.w3.org/1999/xlink" width="3240" zoomAndPan="magnify" viewBox="0 0 2430 809.999993" height="1080" preserveAspectRatio="xMidYMid meet" version="1.0"><defs><g/><clipPath id="3829597e1b"><path d="M 1070.128906 280.503906 L 1359.976562 280.503906 L 1359.976562 529.496094 L 1070.128906 529.496094 Z M 1070.128906 280.503906 " clip-rule="nonzero"/></clipPath><clipPath id="7d33f96380"><path d="M 1359.871094 405 L 1287.433594 529.496094 L 1142.566406 529.496094 L 1070.128906 405 L 1142.566406 280.503906 L 1287.433594 280.503906 Z M 1359.871094 405 " clip-rule="nonzero"/></clipPath><clipPath id="b79674d3f4"><path d="M 1070.132812 280.503906 L 1359.863281 280.503906 L 1359.863281 529.488281 L 1070.132812 529.488281 Z M 1070.132812 280.503906 " clip-rule="nonzero"/></clipPath><clipPath id="cf2cfb0dfe"><path d="M 1359.863281 404.996094 L 1287.433594 529.488281 L 1142.566406 529.488281 L 1070.132812 404.996094 L 1142.566406 280.503906 L 1287.433594 280.503906 Z M 1359.863281 404.996094 " clip-rule="nonzero"/></clipPath></defs><rect x="-243" width="2916" fill="#ffffff" y="-80.999999" height="971.999992" fill-opacity="1"/><rect x="-243" width="2916" fill="#ffffff" y="-80.999999" height="971.999992" fill-opacity="1"/><g clip-path="url(#3829597e1b)"><g clip-path="url(#7d33f96380)"><path fill="#56b2bb" d="M 1070.128906 280.503906 L 1359.976562 280.503906 L 1359.976562 529.496094 L 1070.128906 529.496094 Z M 1070.128906 280.503906 " fill-opacity="1" fill-rule="nonzero"/></g></g><g clip-path="url(#b79674d3f4)"><g clip-path="url(#cf2cfb0dfe)"><path stroke-linecap="butt" transform="matrix(0.678843, 0, 0, 0.678843, 1070.134301, 280.502351)" fill="none" stroke-linejoin="miter" d="M 426.798357 183.39113 L 320.102535 366.779968 L 106.699384 366.779968 L -0.00219221 183.39113 L 106.699384 0.00229149 L 320.102535 0.00229149 Z M 426.798357 183.39113 " stroke="#000000" stroke-width="13.257856" stroke-opacity="1" stroke-miterlimit="4"/></g></g><g fill="#fafafa" fill-opacity="1"><g transform="translate(1159.985905, 386.612931)"><g><path d="M 16.296875 -32.921875 L 16.296875 0 L 9.359375 0 L 9.359375 -24.40625 L 9.046875 -24.40625 C 8.691406 -23.851562 7.941406 -23.304688 6.796875 -22.765625 C 5.648438 -22.222656 4.164062 -21.953125 2.34375 -21.953125 L 2.34375 -27.484375 C 3.757812 -27.484375 5 -27.796875 6.0625 -28.421875 C 7.125 -29.054688 7.953125 -29.796875 8.546875 -30.640625 C 9.148438 -31.492188 9.460938 -32.253906 9.484375 -32.921875 Z M 16.296875 -32.921875 "/></g></g></g><g fill="#fafafa" fill-opacity="1"><g transform="translate(1181.440366, 386.612931)"><g><path d="M 3.96875 0 L 17.625 -27 L 17.625 -27.234375 L 1.71875 -27.234375 L 1.71875 -32.921875 L 24.8125 -32.921875 L 24.8125 -27.15625 L 11.15625 0 Z M 3.96875 0 "/></g></g></g><g fill="#fafafa" fill-opacity="1"><g transform="translate(1208.358889, 386.612931)"><g><path d="M 2.859375 0 L 2.859375 -32.921875 L 9.828125 -32.921875 L 9.828125 -18.40625 L 10.25 -18.40625 L 22.109375 -32.921875 L 30.4375 -32.921875 L 18.234375 -18.1875 L 30.59375 0 L 22.265625 0 L 13.25 -13.53125 L 9.828125 -9.359375 L 9.828125 0 Z M 2.859375 0 "/></g></g></g><g fill="#fafafa" fill-opacity="1"><g transform="translate(1239.568303, 386.612931)"><g><path d="M 12.34375 -1.9375 L 12.34375 -10.3125 L 3.96875 -10.3125 L 3.96875 -16.078125 L 12.34375 -16.078125 L 12.34375 -24.453125 L 18.09375 -24.453125 L 18.09375 -16.078125 L 26.46875 -16.078125 L 26.46875 -10.3125 L 18.09375 -10.3125 L 18.09375 -1.9375 Z M 12.34375 -1.9375 "/></g></g></g><g fill="#fafafa" fill-opacity="1"><g transform="translate(1096.429243, 434.966684)"><g><path d="M 7.234375 0 L 0.90625 0 L 10.546875 -27.890625 L 18.140625 -27.890625 L 27.765625 0 L 21.4375 0 L 19.375 -6.359375 L 9.296875 -6.359375 Z M 10.796875 -10.96875 L 17.890625 -10.96875 L 14.453125 -21.515625 L 14.234375 -21.515625 Z M 10.796875 -10.96875 "/></g></g></g><g fill="#fafafa" fill-opacity="1"><g transform="translate(1125.114222, 434.966684)"><g><path d="M 2.3125 7.84375 L 2.3125 -20.921875 L 8.03125 -20.921875 L 8.03125 -17.40625 L 8.296875 -17.40625 C 8.554688 -17.976562 8.925781 -18.554688 9.40625 -19.140625 C 9.894531 -19.722656 10.53125 -20.210938 11.3125 -20.609375 C 12.101562 -21.003906 13.082031 -21.203125 14.25 -21.203125 C 15.78125 -21.203125 17.1875 -20.800781 18.46875 -20 C 19.75 -19.207031 20.773438 -18.015625 21.546875 -16.421875 C 22.328125 -14.828125 22.71875 -12.832031 22.71875 -10.4375 C 22.71875 -8.101562 22.335938 -6.132812 21.578125 -4.53125 C 20.828125 -2.925781 19.8125 -1.710938 18.53125 -0.890625 C 17.257812 -0.0664062 15.828125 0.34375 14.234375 0.34375 C 13.109375 0.34375 12.148438 0.15625 11.359375 -0.21875 C 10.578125 -0.59375 9.9375 -1.0625 9.4375 -1.625 C 8.945312 -2.195312 8.566406 -2.769531 8.296875 -3.34375 L 8.125 -3.34375 L 8.125 7.84375 Z M 8 -10.46875 C 8 -8.601562 8.378906 -7.101562 9.140625 -5.96875 C 9.910156 -4.84375 10.992188 -4.28125 12.390625 -4.28125 C 13.816406 -4.28125 14.90625 -4.851562 15.65625 -6 C 16.414062 -7.144531 16.796875 -8.632812 16.796875 -10.46875 C 16.796875 -12.28125 16.421875 -13.75 15.671875 -14.875 C 14.921875 -16.007812 13.828125 -16.578125 12.390625 -16.578125 C 10.984375 -16.578125 9.898438 -16.023438 9.140625 -14.921875 C 8.378906 -13.816406 8 -12.332031 8 -10.46875 Z M 8 -10.46875 "/></g></g></g><g fill="#fafafa" fill-opacity="1"><g transform="translate(1149.372509, 434.966684)"><g><path d="M 2.3125 7.84375 L 2.3125 -20.921875 L 8.03125 -20.921875 L 8.03125 -17.40625 L 8.296875 -17.40625 C 8.554688 -17.976562 8.925781 -18.554688 9.40625 -19.140625 C 9.894531 -19.722656 10.53125 -20.210938 11.3125 -20.609375 C 12.101562 -21.003906 13.082031 -21.203125 14.25 -21.203125 C 15.78125 -21.203125 17.1875 -20.800781 18.46875 -20 C 19.75 -19.207031 20.773438 -18.015625 21.546875 -16.421875 C 22.328125 -14.828125 22.71875 -12.832031 22.71875 -10.4375 C 22.71875 -8.101562 22.335938 -6.132812 21.578125 -4.53125 C 20.828125 -2.925781 19.8125 -1.710938 18.53125 -0.890625 C 17.257812 -0.0664062 15.828125 0.34375 14.234375 0.34375 C 13.109375 0.34375 12.148438 0.15625 11.359375 -0.21875 C 10.578125 -0.59375 9.9375 -1.0625 9.4375 -1.625 C 8.945312 -2.195312 8.566406 -2.769531 8.296875 -3.34375 L 8.125 -3.34375 L 8.125 7.84375 Z M 8 -10.46875 C 8 -8.601562 8.378906 -7.101562 9.140625 -5.96875 C 9.910156 -4.84375 10.992188 -4.28125 12.390625 -4.28125 C 13.816406 -4.28125 14.90625 -4.851562 15.65625 -6 C 16.414062 -7.144531 16.796875 -8.632812 16.796875 -10.46875 C 16.796875 -12.28125 16.421875 -13.75 15.671875 -14.875 C 14.921875 -16.007812 13.828125 -16.578125 12.390625 -16.578125 C 10.984375 -16.578125 9.898438 -16.023438 9.140625 -14.921875 C 8.378906 -13.816406 8 -12.332031 8 -10.46875 Z M 8 -10.46875 "/></g></g></g><g fill="#fafafa" fill-opacity="1"><g transform="translate(1173.630796, 434.966684)"><g><path d="M 8.125 -27.890625 L 8.125 0 L 2.3125 0 L 2.3125 -27.890625 Z M 8.125 -27.890625 "/></g></g></g><g fill="#fafafa" fill-opacity="1"><g transform="translate(1184.064177, 434.966684)"><g><path d="M 2.3125 0 L 2.3125 -20.921875 L 8.125 -20.921875 L 8.125 0 Z M 5.21875 -23.625 C 4.363281 -23.625 3.628906 -23.910156 3.015625 -24.484375 C 2.398438 -25.054688 2.09375 -25.75 2.09375 -26.5625 C 2.09375 -27.375 2.398438 -28.0625 3.015625 -28.625 C 3.628906 -29.195312 4.363281 -29.484375 5.21875 -29.484375 C 6.082031 -29.484375 6.820312 -29.195312 7.4375 -28.625 C 8.0625 -28.0625 8.375 -27.375 8.375 -26.5625 C 8.375 -25.75 8.0625 -25.054688 7.4375 -24.484375 C 6.820312 -23.910156 6.082031 -23.625 5.21875 -23.625 Z M 5.21875 -23.625 "/></g></g></g><g fill="#fafafa" fill-opacity="1"><g transform="translate(1194.497558, 434.966684)"><g><path d="M 11.765625 0.40625 C 9.617188 0.40625 7.773438 -0.046875 6.234375 -0.953125 C 4.703125 -1.867188 3.523438 -3.140625 2.703125 -4.765625 C 1.878906 -6.390625 1.46875 -8.257812 1.46875 -10.375 C 1.46875 -12.519531 1.882812 -14.398438 2.71875 -16.015625 C 3.550781 -17.640625 4.734375 -18.910156 6.265625 -19.828125 C 7.796875 -20.742188 9.625 -21.203125 11.75 -21.203125 C 13.570312 -21.203125 15.171875 -20.867188 16.546875 -20.203125 C 17.921875 -19.535156 19.003906 -18.601562 19.796875 -17.40625 C 20.585938 -16.207031 21.023438 -14.800781 21.109375 -13.1875 L 15.640625 -13.1875 C 15.484375 -14.226562 15.078125 -15.066406 14.421875 -15.703125 C 13.765625 -16.347656 12.90625 -16.671875 11.84375 -16.671875 C 10.5 -16.671875 9.414062 -16.128906 8.59375 -15.046875 C 7.78125 -13.972656 7.375 -12.445312 7.375 -10.46875 C 7.375 -8.46875 7.78125 -6.921875 8.59375 -5.828125 C 9.40625 -4.734375 10.488281 -4.1875 11.84375 -4.1875 C 12.84375 -4.1875 13.679688 -4.488281 14.359375 -5.09375 C 15.035156 -5.695312 15.460938 -6.554688 15.640625 -7.671875 L 21.109375 -7.671875 C 21.023438 -6.066406 20.59375 -4.65625 19.8125 -3.4375 C 19.039062 -2.226562 17.972656 -1.285156 16.609375 -0.609375 C 15.242188 0.0664062 13.628906 0.40625 11.765625 0.40625 Z M 11.765625 0.40625 "/></g></g></g><g fill="#fafafa" fill-opacity="1"><g transform="translate(1217.026031, 434.966684)"><g><path d="M 8.28125 0.390625 C 6.28125 0.390625 4.617188 -0.128906 3.296875 -1.171875 C 1.984375 -2.210938 1.328125 -3.769531 1.328125 -5.84375 C 1.328125 -7.40625 1.695312 -8.628906 2.4375 -9.515625 C 3.175781 -10.410156 4.140625 -11.0625 5.328125 -11.46875 C 6.523438 -11.882812 7.8125 -12.15625 9.1875 -12.28125 C 11.007812 -12.46875 12.3125 -12.660156 13.09375 -12.859375 C 13.875 -13.054688 14.265625 -13.492188 14.265625 -14.171875 L 14.265625 -14.25 C 14.265625 -15.113281 13.992188 -15.78125 13.453125 -16.25 C 12.910156 -16.71875 12.144531 -16.953125 11.15625 -16.953125 C 10.113281 -16.953125 9.28125 -16.722656 8.65625 -16.265625 C 8.039062 -15.816406 7.632812 -15.242188 7.4375 -14.546875 L 2.078125 -14.984375 C 2.472656 -16.890625 3.460938 -18.398438 5.046875 -19.515625 C 6.628906 -20.640625 8.675781 -21.203125 11.1875 -21.203125 C 12.738281 -21.203125 14.191406 -20.953125 15.546875 -20.453125 C 16.898438 -19.960938 17.988281 -19.195312 18.8125 -18.15625 C 19.644531 -17.125 20.0625 -15.773438 20.0625 -14.109375 L 20.0625 0 L 14.5625 0 L 14.5625 -2.90625 L 14.40625 -2.90625 C 13.894531 -1.925781 13.128906 -1.128906 12.109375 -0.515625 C 11.097656 0.0859375 9.820312 0.390625 8.28125 0.390625 Z M 9.9375 -3.609375 C 11.207031 -3.609375 12.25 -3.976562 13.0625 -4.71875 C 13.882812 -5.457031 14.296875 -6.378906 14.296875 -7.484375 L 14.296875 -9.703125 C 14.078125 -9.546875 13.726562 -9.40625 13.25 -9.28125 C 12.769531 -9.164062 12.257812 -9.066406 11.71875 -8.984375 C 11.175781 -8.898438 10.691406 -8.828125 10.265625 -8.765625 C 9.253906 -8.617188 8.4375 -8.332031 7.8125 -7.90625 C 7.1875 -7.476562 6.875 -6.851562 6.875 -6.03125 C 6.875 -5.226562 7.160156 -4.625 7.734375 -4.21875 C 8.316406 -3.8125 9.050781 -3.609375 9.9375 -3.609375 Z M 9.9375 -3.609375 "/></g></g></g><g fill="#fafafa" fill-opacity="1"><g transform="translate(1239.282091, 434.966684)"><g><path d="M 13.4375 -20.921875 L 13.4375 -16.5625 L 9.515625 -16.5625 L 9.515625 -6.421875 C 9.515625 -5.628906 9.691406 -5.09375 10.046875 -4.8125 C 10.410156 -4.53125 10.882812 -4.390625 11.46875 -4.390625 C 11.738281 -4.390625 12.007812 -4.410156 12.28125 -4.453125 C 12.5625 -4.503906 12.769531 -4.546875 12.90625 -4.578125 L 13.828125 -0.265625 C 13.535156 -0.171875 13.125 -0.0625 12.59375 0.0625 C 12.070312 0.1875 11.429688 0.257812 10.671875 0.28125 C 8.566406 0.375 6.875 -0.078125 5.59375 -1.078125 C 4.320312 -2.085938 3.691406 -3.617188 3.703125 -5.671875 L 3.703125 -16.5625 L 0.84375 -16.5625 L 0.84375 -20.921875 L 3.703125 -20.921875 L 3.703125 -25.9375 L 9.515625 -25.9375 L 9.515625 -20.921875 Z M 13.4375 -20.921875 "/></g></g></g><g fill="#fafafa" fill-opacity="1"><g transform="translate(1254.183036, 434.966684)"><g><path d="M 2.3125 0 L 2.3125 -20.921875 L 8.125 -20.921875 L 8.125 0 Z M 5.21875 -23.625 C 4.363281 -23.625 3.628906 -23.910156 3.015625 -24.484375 C 2.398438 -25.054688 2.09375 -25.75 2.09375 -26.5625 C 2.09375 -27.375 2.398438 -28.0625 3.015625 -28.625 C 3.628906 -29.195312 4.363281 -29.484375 5.21875 -29.484375 C 6.082031 -29.484375 6.820312 -29.195312 7.4375 -28.625 C 8.0625 -28.0625 8.375 -27.375 8.375 -26.5625 C 8.375 -25.75 8.0625 -25.054688 7.4375 -24.484375 C 6.820312 -23.910156 6.082031 -23.625 5.21875 -23.625 Z M 5.21875 -23.625 "/></g></g></g><g fill="#fafafa" fill-opacity="1"><g transform="translate(1264.616408, 434.966684)"><g><path d="M 11.765625 0.40625 C 9.648438 0.40625 7.820312 -0.0390625 6.28125 -0.9375 C 4.75 -1.84375 3.5625 -3.109375 2.71875 -4.734375 C 1.882812 -6.359375 1.46875 -8.238281 1.46875 -10.375 C 1.46875 -12.539062 1.882812 -14.429688 2.71875 -16.046875 C 3.5625 -17.671875 4.75 -18.9375 6.28125 -19.84375 C 7.820312 -20.75 9.648438 -21.203125 11.765625 -21.203125 C 13.878906 -21.203125 15.707031 -20.75 17.25 -19.84375 C 18.789062 -18.9375 19.976562 -17.671875 20.8125 -16.046875 C 21.644531 -14.429688 22.0625 -12.539062 22.0625 -10.375 C 22.0625 -8.238281 21.644531 -6.359375 20.8125 -4.734375 C 19.976562 -3.109375 18.789062 -1.84375 17.25 -0.9375 C 15.707031 -0.0390625 13.878906 0.40625 11.765625 0.40625 Z M 11.796875 -4.09375 C 13.234375 -4.09375 14.320312 -4.691406 15.0625 -5.890625 C 15.800781 -7.085938 16.171875 -8.597656 16.171875 -10.421875 C 16.171875 -12.242188 15.800781 -13.753906 15.0625 -14.953125 C 14.320312 -16.160156 13.234375 -16.765625 11.796875 -16.765625 C 10.335938 -16.765625 9.234375 -16.160156 8.484375 -14.953125 C 7.742188 -13.753906 7.375 -12.242188 7.375 -10.421875 C 7.375 -8.597656 7.742188 -7.085938 8.484375 -5.890625 C 9.234375 -4.691406 10.335938 -4.09375 11.796875 -4.09375 Z M 11.796875 -4.09375 "/></g></g></g><g fill="#fafafa" fill-opacity="1"><g transform="translate(1288.152811, 434.966684)"><g><path d="M 8.125 -12.09375 L 8.125 0 L 2.3125 0 L 2.3125 -20.921875 L 7.84375 -20.921875 L 7.84375 -17.234375 L 8.09375 -17.234375 C 8.5625 -18.453125 9.335938 -19.414062 10.421875 -20.125 C 11.515625 -20.84375 12.835938 -21.203125 14.390625 -21.203125 C 16.566406 -21.203125 18.3125 -20.5 19.625 -19.09375 C 20.945312 -17.6875 21.609375 -15.765625 21.609375 -13.328125 L 21.609375 0 L 15.796875 0 L 15.796875 -12.28125 C 15.804688 -13.5625 15.476562 -14.5625 14.8125 -15.28125 C 14.15625 -16.007812 13.242188 -16.375 12.078125 -16.375 C 10.910156 -16.375 9.957031 -16 9.21875 -15.25 C 8.488281 -14.5 8.125 -13.445312 8.125 -12.09375 Z M 8.125 -12.09375 "/></g></g></g><g fill="#fafafa" fill-opacity="1"><g transform="translate(1312.002489, 434.966684)"><g><path d="M 19.71875 -14.953125 L 14.40625 -14.625 C 14.257812 -15.300781 13.890625 -15.878906 13.296875 -16.359375 C 12.710938 -16.835938 11.914062 -17.078125 10.90625 -17.078125 C 10.007812 -17.078125 9.25 -16.890625 8.625 -16.515625 C 8.007812 -16.140625 7.703125 -15.640625 7.703125 -15.015625 C 7.703125 -14.515625 7.898438 -14.09375 8.296875 -13.75 C 8.703125 -13.40625 9.390625 -13.125 10.359375 -12.90625 L 14.15625 -12.15625 C 18.175781 -11.320312 20.191406 -9.429688 20.203125 -6.484375 C 20.203125 -5.109375 19.800781 -3.90625 19 -2.875 C 18.195312 -1.84375 17.09375 -1.035156 15.6875 -0.453125 C 14.289062 0.117188 12.691406 0.40625 10.890625 0.40625 C 8.117188 0.40625 5.910156 -0.171875 4.265625 -1.328125 C 2.617188 -2.484375 1.660156 -4.0625 1.390625 -6.0625 L 7.09375 -6.359375 C 7.28125 -5.503906 7.703125 -4.859375 8.359375 -4.421875 C 9.015625 -3.984375 9.859375 -3.765625 10.890625 -3.765625 C 11.910156 -3.765625 12.734375 -3.960938 13.359375 -4.359375 C 13.984375 -4.765625 14.296875 -5.273438 14.296875 -5.890625 C 14.273438 -6.929688 13.382812 -7.628906 11.625 -7.984375 L 8 -8.703125 C 3.945312 -9.515625 1.929688 -11.507812 1.953125 -14.6875 C 1.941406 -16.695312 2.742188 -18.285156 4.359375 -19.453125 C 5.984375 -20.617188 8.132812 -21.203125 10.8125 -21.203125 C 13.457031 -21.203125 15.539062 -20.640625 17.0625 -19.515625 C 18.582031 -18.398438 19.46875 -16.878906 19.71875 -14.953125 Z M 19.71875 -14.953125 "/></g></g></g></svg>