<svg xmlns="http://www.w3.org/2000/svg" xmlns:xlink="http://www.w3.org/1999/xlink" width="3240" zoomAndPan="magnify" viewBox="0 0 2430 809.999993" height="1080" preserveAspectRatio="xMidYMid meet" version="1.0"><defs><g/><clipPath id="9814d62b3f"><path d="M 1070.128906 280.503906 L 1359.976562 280.503906 L 1359.976562 529.496094 L 1070.128906 529.496094 Z M 1070.128906 280.503906 " clip-rule="nonzero"/></clipPath><clipPath id="2d2a3d47e6"><path d="M 1359.871094 405 L 1287.433594 529.496094 L 1142.566406 529.496094 L 1070.128906 405 L 1142.566406 280.503906 L 1287.433594 280.503906 Z M 1359.871094 405 " clip-rule="nonzero"/></clipPath><clipPath id="069d844eae"><path d="M 1070.132812 280.503906 L 1359.863281 280.503906 L 1359.863281 529.488281 L 1070.132812 529.488281 Z M 1070.132812 280.503906 " clip-rule="nonzero"/></clipPath><clipPath id="a747e36b37"><path d="M 1359.863281 404.996094 L 1287.433594 529.488281 L 1142.566406 529.488281 L 1070.132812 404.996094 L 1142.566406 280.503906 L 1287.433594 280.503906 Z M 1359.863281 404.996094 " clip-rule="nonzero"/></clipPath></defs><rect x="-243" width="2916" fill="#ffffff" y="-80.999999" height="971.999992" fill-opacity="1"/><rect x="-243" width="2916" fill="#ffffff" y="-80.999999" height="971.999992" fill-opacity="1"/><g clip-path="url(#9814d62b3f)"><g clip-path="url(#2d2a3d47e6)"><path fill="#56b2bb" d="M 1070.128906 280.503906 L 1359.976562 280.503906 L 1359.976562 529.496094 L 1070.128906 529.496094 Z M 1070.128906 280.503906 " fill-opacity="1" fill-rule="nonzero"/></g></g><g clip-path="url(#069d844eae)"><g clip-path="url(#a747e36b37)"><path stroke-linecap="butt" transform="matrix(0.678843, 0, 0, 0.678843, 1070.134301, 280.502262)" fill="none" stroke-linejoin="miter" d="M 426.798357 183.39126 L 320.102535 366.780098 L 106.699384 366.780098 L -0.00219221 183.39126 L 106.699384 0.0024223 L 320.102535 0.0024223 Z M 426.798357 183.39126 " stroke="#0a0f22" stroke-width="13.257856" stroke-opacity="1" stroke-miterlimit="4"/></g></g><g fill="#fafafa" fill-opacity="1"><g transform="translate(1181.233489, 396.039845)"><g><path d="M 2.671875 0 L 2.671875 -5.015625 L 14.390625 -15.859375 C 15.890625 -17.296875 17.03125 -18.546875 17.8125 -19.609375 C 18.59375 -20.671875 18.984375 -21.851562 18.984375 -23.15625 C 18.984375 -24.601562 18.503906 -25.75 17.546875 -26.59375 C 16.585938 -27.4375 15.382812 -27.859375 13.9375 -27.859375 C 12.4375 -27.859375 11.226562 -27.40625 10.3125 -26.5 C 9.394531 -25.59375 8.941406 -24.351562 8.953125 -22.78125 L 2.34375 -22.78125 C 2.34375 -24.9375 2.828125 -26.804688 3.796875 -28.390625 C 4.773438 -29.972656 6.140625 -31.195312 7.890625 -32.0625 C 9.648438 -32.9375 11.679688 -33.375 13.984375 -33.375 C 16.335938 -33.375 18.390625 -32.957031 20.140625 -32.125 C 21.898438 -31.289062 23.265625 -30.140625 24.234375 -28.671875 C 25.210938 -27.210938 25.703125 -25.53125 25.703125 -23.625 C 25.703125 -22.382812 25.453125 -21.15625 24.953125 -19.9375 C 24.460938 -18.726562 23.597656 -17.390625 22.359375 -15.921875 C 21.128906 -14.453125 19.382812 -12.6875 17.125 -10.625 L 12.3125 -5.921875 L 12.3125 -5.6875 L 26.140625 -5.6875 L 26.140625 0 Z M 2.671875 0 "/></g></g></g><g fill="#fafafa" fill-opacity="1"><g transform="translate(1209.74302, 396.039845)"><g><path d="M 14.6875 0.453125 C 12.414062 0.453125 10.390625 0.0351562 8.609375 -0.796875 C 6.835938 -1.640625 5.429688 -2.796875 4.390625 -4.265625 C 3.359375 -5.734375 2.820312 -7.414062 2.78125 -9.3125 L 9.53125 -9.3125 C 9.613281 -8.03125 10.148438 -6.992188 11.140625 -6.203125 C 12.128906 -5.410156 13.3125 -5.015625 14.6875 -5.015625 C 16.320312 -5.015625 17.660156 -5.550781 18.703125 -6.625 C 19.753906 -7.695312 20.28125 -9.085938 20.28125 -10.796875 C 20.28125 -12.523438 19.75 -13.929688 18.6875 -15.015625 C 17.625 -16.109375 16.257812 -16.660156 14.59375 -16.671875 C 13.613281 -16.671875 12.675781 -16.472656 11.78125 -16.078125 C 10.882812 -15.679688 10.179688 -15.140625 9.671875 -14.453125 L 3.484375 -15.5625 L 5.046875 -32.921875 L 25.171875 -32.921875 L 25.171875 -27.234375 L 10.78125 -27.234375 L 9.9375 -18.984375 L 10.125 -18.984375 C 10.707031 -19.796875 11.582031 -20.46875 12.75 -21 C 13.914062 -21.539062 15.222656 -21.8125 16.671875 -21.8125 C 18.648438 -21.8125 20.414062 -21.34375 21.96875 -20.40625 C 23.519531 -19.476562 24.742188 -18.195312 25.640625 -16.5625 C 26.546875 -14.9375 26.992188 -13.078125 26.984375 -10.984375 C 26.992188 -8.765625 26.484375 -6.789062 25.453125 -5.0625 C 24.421875 -3.34375 22.976562 -1.992188 21.125 -1.015625 C 19.28125 -0.0351562 17.132812 0.453125 14.6875 0.453125 Z M 14.6875 0.453125 "/></g></g></g><g fill="#fafafa" fill-opacity="1"><g transform="translate(1238.911446, 396.039845)"><g><path d="M 12.34375 -1.9375 L 12.34375 -10.3125 L 3.96875 -10.3125 L 3.96875 -16.078125 L 12.34375 -16.078125 L 12.34375 -24.453125 L 18.09375 -24.453125 L 18.09375 -16.078125 L 26.46875 -16.078125 L 26.46875 -10.3125 L 18.09375 -10.3125 L 18.09375 -1.9375 Z M 12.34375 -1.9375 "/></g></g></g><g fill="#fafafa" fill-opacity="1"><g transform="translate(1154.634162, 434.422347)"><g><path d="M 19.078125 -21.59375 C 18.953125 -22.78125 18.4375 -23.703125 17.53125 -24.359375 C 16.632812 -25.023438 15.421875 -25.359375 13.890625 -25.359375 C 12.328125 -25.359375 11.125 -25.035156 10.28125 -24.390625 C 9.445312 -23.753906 9.03125 -22.945312 9.03125 -21.96875 C 9.007812 -20.882812 9.472656 -20.0625 10.421875 -19.5 C 11.378906 -18.945312 12.515625 -18.519531 13.828125 -18.21875 L 16.546875 -17.5625 C 18.296875 -17.164062 19.851562 -16.59375 21.21875 -15.84375 C 22.59375 -15.09375 23.671875 -14.128906 24.453125 -12.953125 C 25.234375 -11.773438 25.625 -10.34375 25.625 -8.65625 C 25.613281 -5.882812 24.578125 -3.675781 22.515625 -2.03125 C 20.453125 -0.394531 17.566406 0.421875 13.859375 0.421875 C 10.179688 0.421875 7.25 -0.414062 5.0625 -2.09375 C 2.875 -3.769531 1.738281 -6.242188 1.65625 -9.515625 L 7.859375 -9.515625 C 7.960938 -7.992188 8.5625 -6.847656 9.65625 -6.078125 C 10.75 -5.316406 12.128906 -4.9375 13.796875 -4.9375 C 15.421875 -4.9375 16.71875 -5.28125 17.6875 -5.96875 C 18.664062 -6.664062 19.15625 -7.566406 19.15625 -8.671875 C 19.15625 -9.691406 18.707031 -10.476562 17.8125 -11.03125 C 16.925781 -11.59375 15.660156 -12.066406 14.015625 -12.453125 L 10.71875 -13.28125 C 8.15625 -13.894531 6.132812 -14.867188 4.65625 -16.203125 C 3.175781 -17.535156 2.441406 -19.316406 2.453125 -21.546875 C 2.441406 -23.378906 2.929688 -24.984375 3.921875 -26.359375 C 4.921875 -27.734375 6.285156 -28.800781 8.015625 -29.5625 C 9.753906 -30.332031 11.726562 -30.71875 13.9375 -30.71875 C 16.1875 -30.71875 18.148438 -30.332031 19.828125 -29.5625 C 21.515625 -28.789062 22.828125 -27.71875 23.765625 -26.34375 C 24.703125 -24.976562 25.1875 -23.394531 25.21875 -21.59375 Z M 19.078125 -21.59375 "/></g></g></g><g fill="#fafafa" fill-opacity="1"><g transform="translate(1181.924115, 434.422347)"><g><path d="M 14.609375 -22.734375 L 14.609375 -18 L 10.328125 -18 L 10.328125 -6.984375 C 10.328125 -6.117188 10.523438 -5.53125 10.921875 -5.21875 C 11.316406 -4.914062 11.828125 -4.765625 12.453125 -4.765625 C 12.753906 -4.765625 13.050781 -4.789062 13.34375 -4.84375 C 13.644531 -4.894531 13.875 -4.9375 14.03125 -4.96875 L 15.015625 -0.28125 C 14.703125 -0.1875 14.257812 -0.0703125 13.6875 0.0625 C 13.113281 0.195312 12.421875 0.28125 11.609375 0.3125 C 9.316406 0.40625 7.476562 -0.0859375 6.09375 -1.171875 C 4.707031 -2.265625 4.019531 -3.925781 4.03125 -6.15625 L 4.03125 -18 L 0.921875 -18 L 0.921875 -22.734375 L 4.03125 -22.734375 L 4.03125 -28.171875 L 10.328125 -28.171875 L 10.328125 -22.734375 Z M 14.609375 -22.734375 "/></g></g></g><g fill="#fafafa" fill-opacity="1"><g transform="translate(1198.114577, 434.422347)"><g><path d="M 9 0.421875 C 6.820312 0.421875 5.019531 -0.140625 3.59375 -1.265625 C 2.164062 -2.398438 1.453125 -4.09375 1.453125 -6.34375 C 1.453125 -8.039062 1.847656 -9.375 2.640625 -10.34375 C 3.441406 -11.3125 4.488281 -12.019531 5.78125 -12.46875 C 7.082031 -12.914062 8.484375 -13.207031 9.984375 -13.34375 C 11.960938 -13.539062 13.375 -13.75 14.21875 -13.96875 C 15.070312 -14.1875 15.5 -14.660156 15.5 -15.390625 L 15.5 -15.484375 C 15.5 -16.421875 15.203125 -17.144531 14.609375 -17.65625 C 14.023438 -18.164062 13.195312 -18.421875 12.125 -18.421875 C 10.988281 -18.421875 10.082031 -18.171875 9.40625 -17.671875 C 8.738281 -17.179688 8.296875 -16.554688 8.078125 -15.796875 L 2.25 -16.28125 C 2.6875 -18.351562 3.765625 -19.992188 5.484375 -21.203125 C 7.203125 -22.421875 9.425781 -23.03125 12.15625 -23.03125 C 13.84375 -23.03125 15.421875 -22.757812 16.890625 -22.21875 C 18.359375 -21.6875 19.539062 -20.851562 20.4375 -19.71875 C 21.34375 -18.59375 21.796875 -17.128906 21.796875 -15.328125 L 21.796875 0 L 15.8125 0 L 15.8125 -3.15625 L 15.640625 -3.15625 C 15.085938 -2.09375 14.257812 -1.226562 13.15625 -0.5625 C 12.0625 0.09375 10.675781 0.421875 9 0.421875 Z M 10.796875 -3.921875 C 12.179688 -3.921875 13.316406 -4.320312 14.203125 -5.125 C 15.085938 -5.925781 15.53125 -6.925781 15.53125 -8.125 L 15.53125 -10.53125 C 15.289062 -10.363281 14.910156 -10.21875 14.390625 -10.09375 C 13.867188 -9.96875 13.316406 -9.859375 12.734375 -9.765625 C 12.148438 -9.671875 11.625 -9.585938 11.15625 -9.515625 C 10.050781 -9.359375 9.160156 -9.046875 8.484375 -8.578125 C 7.804688 -8.117188 7.46875 -7.445312 7.46875 -6.5625 C 7.46875 -5.6875 7.78125 -5.023438 8.40625 -4.578125 C 9.039062 -4.140625 9.835938 -3.921875 10.796875 -3.921875 Z M 10.796875 -3.921875 "/></g></g></g><g fill="#fafafa" fill-opacity="1"><g transform="translate(1222.29667, 434.422347)"><g><path d="M 14.609375 -22.734375 L 14.609375 -18 L 10.328125 -18 L 10.328125 -6.984375 C 10.328125 -6.117188 10.523438 -5.53125 10.921875 -5.21875 C 11.316406 -4.914062 11.828125 -4.765625 12.453125 -4.765625 C 12.753906 -4.765625 13.050781 -4.789062 13.34375 -4.84375 C 13.644531 -4.894531 13.875 -4.9375 14.03125 -4.96875 L 15.015625 -0.28125 C 14.703125 -0.1875 14.257812 -0.0703125 13.6875 0.0625 C 13.113281 0.195312 12.421875 0.28125 11.609375 0.3125 C 9.316406 0.40625 7.476562 -0.0859375 6.09375 -1.171875 C 4.707031 -2.265625 4.019531 -3.925781 4.03125 -6.15625 L 4.03125 -18 L 0.921875 -18 L 0.921875 -22.734375 L 4.03125 -22.734375 L 4.03125 -28.171875 L 10.328125 -28.171875 L 10.328125 -22.734375 Z M 14.609375 -22.734375 "/></g></g></g><g fill="#fafafa" fill-opacity="1"><g transform="translate(1238.487133, 434.422347)"><g><path d="M 12.875 0.4375 C 10.539062 0.4375 8.53125 -0.0351562 6.84375 -0.984375 C 5.164062 -1.929688 3.867188 -3.28125 2.953125 -5.03125 C 2.046875 -6.789062 1.59375 -8.867188 1.59375 -11.265625 C 1.59375 -13.597656 2.046875 -15.644531 2.953125 -17.40625 C 3.867188 -19.175781 5.148438 -20.554688 6.796875 -21.546875 C 8.453125 -22.535156 10.394531 -23.03125 12.625 -23.03125 C 14.625 -23.03125 16.429688 -22.601562 18.046875 -21.75 C 19.660156 -20.90625 20.941406 -19.625 21.890625 -17.90625 C 22.835938 -16.195312 23.3125 -14.054688 23.3125 -11.484375 L 23.3125 -9.75 L 7.828125 -9.75 L 7.828125 -9.734375 C 7.828125 -8.035156 8.289062 -6.695312 9.21875 -5.71875 C 10.144531 -4.75 11.398438 -4.265625 12.984375 -4.265625 C 14.035156 -4.265625 14.945312 -4.484375 15.71875 -4.921875 C 16.488281 -5.367188 17.03125 -6.023438 17.34375 -6.890625 L 23.171875 -6.515625 C 22.734375 -4.398438 21.609375 -2.710938 19.796875 -1.453125 C 17.992188 -0.191406 15.6875 0.4375 12.875 0.4375 Z M 7.828125 -13.65625 L 17.375 -13.65625 C 17.363281 -15.007812 16.925781 -16.125 16.0625 -17 C 15.207031 -17.875 14.09375 -18.3125 12.71875 -18.3125 C 11.320312 -18.3125 10.175781 -17.859375 9.28125 -16.953125 C 8.382812 -16.046875 7.898438 -14.945312 7.828125 -13.65625 Z M 7.828125 -13.65625 "/></g></g></g><g fill="#fafafa" fill-opacity="1"><g transform="translate(1263.394393, 434.422347)"><g><path d="M 21.421875 -16.25 L 15.65625 -15.890625 C 15.5 -16.617188 15.097656 -17.242188 14.453125 -17.765625 C 13.816406 -18.296875 12.953125 -18.5625 11.859375 -18.5625 C 10.878906 -18.5625 10.050781 -18.351562 9.375 -17.9375 C 8.695312 -17.53125 8.363281 -16.988281 8.375 -16.3125 C 8.363281 -15.769531 8.578125 -15.3125 9.015625 -14.9375 C 9.453125 -14.5625 10.203125 -14.257812 11.265625 -14.03125 L 15.375 -13.203125 C 19.75 -12.304688 21.941406 -10.253906 21.953125 -7.046875 C 21.953125 -5.554688 21.515625 -4.25 20.640625 -3.125 C 19.765625 -2 18.566406 -1.125 17.046875 -0.5 C 15.523438 0.125 13.785156 0.4375 11.828125 0.4375 C 8.816406 0.4375 6.414062 -0.1875 4.625 -1.4375 C 2.84375 -2.695312 1.804688 -4.410156 1.515625 -6.578125 L 7.703125 -6.90625 C 7.898438 -5.976562 8.359375 -5.273438 9.078125 -4.796875 C 9.796875 -4.328125 10.71875 -4.09375 11.84375 -4.09375 C 12.945312 -4.09375 13.832031 -4.3125 14.5 -4.75 C 15.175781 -5.1875 15.519531 -5.738281 15.53125 -6.40625 C 15.507812 -7.53125 14.539062 -8.285156 12.625 -8.671875 L 8.6875 -9.453125 C 4.289062 -10.328125 2.097656 -12.492188 2.109375 -15.953125 C 2.097656 -18.140625 2.972656 -19.863281 4.734375 -21.125 C 6.503906 -22.394531 8.84375 -23.03125 11.75 -23.03125 C 14.625 -23.03125 16.882812 -22.421875 18.53125 -21.203125 C 20.1875 -19.992188 21.148438 -18.34375 21.421875 -16.25 Z M 21.421875 -16.25 "/></g></g></g></svg>