<svg xmlns="http://www.w3.org/2000/svg" xmlns:xlink="http://www.w3.org/1999/xlink" width="3240" zoomAndPan="magnify" viewBox="0 0 2430 809.999993" height="1080" preserveAspectRatio="xMidYMid meet" version="1.0"><defs><g/><clipPath id="281c306a32"><path d="M 1070.128906 280.503906 L 1359.976562 280.503906 L 1359.976562 529.496094 L 1070.128906 529.496094 Z M 1070.128906 280.503906 " clip-rule="nonzero"/></clipPath><clipPath id="51f6beac60"><path d="M 1359.871094 405 L 1287.433594 529.496094 L 1142.566406 529.496094 L 1070.128906 405 L 1142.566406 280.503906 L 1287.433594 280.503906 Z M 1359.871094 405 " clip-rule="nonzero"/></clipPath><clipPath id="94eb93729a"><path d="M 1070.132812 280.503906 L 1359.863281 280.503906 L 1359.863281 529.488281 L 1070.132812 529.488281 Z M 1070.132812 280.503906 " clip-rule="nonzero"/></clipPath><clipPath id="2073c7dd6e"><path d="M 1359.863281 404.996094 L 1287.433594 529.488281 L 1142.566406 529.488281 L 1070.132812 404.996094 L 1142.566406 280.503906 L 1287.433594 280.503906 Z M 1359.863281 404.996094 " clip-rule="nonzero"/></clipPath></defs><rect x="-243" width="2916" fill="#ffffff" y="-80.999999" height="971.999992" fill-opacity="1"/><rect x="-243" width="2916" fill="#ffffff" y="-80.999999" height="971.999992" fill-opacity="1"/><g clip-path="url(#281c306a32)"><g clip-path="url(#51f6beac60)"><path fill="#56b2bb" d="M 1070.128906 280.503906 L 1359.976562 280.503906 L 1359.976562 529.496094 L 1070.128906 529.496094 Z M 1070.128906 280.503906 " fill-opacity="1" fill-rule="nonzero"/></g></g><g clip-path="url(#94eb93729a)"><g clip-path="url(#2073c7dd6e)"><path stroke-linecap="butt" transform="matrix(0.678843, 0, 0, 0.678843, 1070.134301, 280.502351)" fill="none" stroke-linejoin="miter" d="M 426.798357 183.39113 L 320.102535 366.779968 L 106.699384 366.779968 L -0.00219221 183.39113 L 106.699384 0.00229149 L 320.102535 0.00229149 Z M 426.798357 183.39113 " stroke="#050404" stroke-width="13.257856" stroke-opacity="1" stroke-miterlimit="4"/></g></g><g fill="#fafafa" fill-opacity="1"><g transform="translate(1099.482104, 436.864769)"><g><path d="M 29.375 -19.703125 L 22.890625 -19.703125 C 22.640625 -21.367188 21.925781 -22.675781 20.75 -23.625 C 19.582031 -24.570312 18.117188 -25.046875 16.359375 -25.046875 C 14.015625 -25.046875 12.132812 -24.1875 10.71875 -22.46875 C 9.300781 -20.75 8.59375 -18.3125 8.59375 -15.15625 C 8.59375 -11.914062 9.304688 -9.453125 10.734375 -7.765625 C 12.160156 -6.085938 14.023438 -5.25 16.328125 -5.25 C 18.023438 -5.25 19.46875 -5.695312 20.65625 -6.59375 C 21.84375 -7.488281 22.585938 -8.742188 22.890625 -10.359375 L 29.375 -10.328125 C 29.144531 -8.472656 28.484375 -6.726562 27.390625 -5.09375 C 26.296875 -3.457031 24.804688 -2.128906 22.921875 -1.109375 C 21.046875 -0.0859375 18.8125 0.421875 16.21875 0.421875 C 13.519531 0.421875 11.101562 -0.1875 8.96875 -1.40625 C 6.84375 -2.632812 5.164062 -4.40625 3.9375 -6.71875 C 2.707031 -9.039062 2.09375 -11.851562 2.09375 -15.15625 C 2.09375 -18.457031 2.710938 -21.265625 3.953125 -23.578125 C 5.203125 -25.898438 6.890625 -27.671875 9.015625 -28.890625 C 11.148438 -30.109375 13.550781 -30.71875 16.21875 -30.71875 C 18.550781 -30.71875 20.65625 -30.285156 22.53125 -29.421875 C 24.414062 -28.554688 25.957031 -27.300781 27.15625 -25.65625 C 28.351562 -24.019531 29.09375 -22.035156 29.375 -19.703125 Z M 29.375 -19.703125 "/></g></g></g><g fill="#fafafa" fill-opacity="1"><g transform="translate(1130.827073, 436.864769)"><g><path d="M 12.78125 0.4375 C 10.488281 0.4375 8.503906 -0.0507812 6.828125 -1.03125 C 5.160156 -2.007812 3.867188 -3.378906 2.953125 -5.140625 C 2.046875 -6.898438 1.59375 -8.945312 1.59375 -11.28125 C 1.59375 -13.625 2.046875 -15.675781 2.953125 -17.4375 C 3.867188 -19.195312 5.160156 -20.566406 6.828125 -21.546875 C 8.503906 -22.535156 10.488281 -23.03125 12.78125 -23.03125 C 15.082031 -23.03125 17.066406 -22.535156 18.734375 -21.546875 C 20.410156 -20.566406 21.703125 -19.195312 22.609375 -17.4375 C 23.515625 -15.675781 23.96875 -13.625 23.96875 -11.28125 C 23.96875 -8.945312 23.515625 -6.898438 22.609375 -5.140625 C 21.703125 -3.378906 20.410156 -2.007812 18.734375 -1.03125 C 17.066406 -0.0507812 15.082031 0.4375 12.78125 0.4375 Z M 12.8125 -4.4375 C 14.375 -4.4375 15.554688 -5.085938 16.359375 -6.390625 C 17.160156 -7.691406 17.5625 -9.335938 17.5625 -11.328125 C 17.5625 -13.304688 17.160156 -14.945312 16.359375 -16.25 C 15.554688 -17.5625 14.375 -18.21875 12.8125 -18.21875 C 11.226562 -18.21875 10.03125 -17.5625 9.21875 -16.25 C 8.40625 -14.945312 8 -13.304688 8 -11.328125 C 8 -9.335938 8.40625 -7.691406 9.21875 -6.390625 C 10.03125 -5.085938 11.226562 -4.4375 12.8125 -4.4375 Z M 12.8125 -4.4375 "/></g></g></g><g fill="#fafafa" fill-opacity="1"><g transform="translate(1156.400303, 436.864769)"><g><path d="M 2.515625 0 L 2.515625 -22.734375 L 8.53125 -22.734375 L 8.53125 -18.71875 L 8.796875 -18.71875 C 9.265625 -20.0625 10.050781 -21.113281 11.15625 -21.875 C 12.269531 -22.644531 13.59375 -23.03125 15.125 -23.03125 C 16.6875 -23.03125 18.015625 -22.640625 19.109375 -21.859375 C 20.203125 -21.085938 20.929688 -20.039062 21.296875 -18.71875 L 21.53125 -18.71875 C 22 -20.019531 22.835938 -21.0625 24.046875 -21.84375 C 25.265625 -22.632812 26.710938 -23.03125 28.390625 -23.03125 C 30.503906 -23.03125 32.222656 -22.351562 33.546875 -21 C 34.878906 -19.65625 35.546875 -17.75 35.546875 -15.28125 L 35.546875 0 L 29.25 0 L 29.25 -14.046875 C 29.25 -15.304688 28.914062 -16.25 28.25 -16.875 C 27.582031 -17.507812 26.742188 -17.828125 25.734375 -17.828125 C 24.585938 -17.828125 23.691406 -17.460938 23.046875 -16.734375 C 22.410156 -16.003906 22.09375 -15.050781 22.09375 -13.875 L 22.09375 0 L 15.984375 0 L 15.984375 -14.171875 C 15.984375 -15.285156 15.664062 -16.171875 15.03125 -16.828125 C 14.394531 -17.492188 13.554688 -17.828125 12.515625 -17.828125 C 11.472656 -17.828125 10.59375 -17.441406 9.875 -16.671875 C 9.164062 -15.910156 8.8125 -14.898438 8.8125 -13.640625 L 8.8125 0 Z M 2.515625 0 "/></g></g></g><g fill="#fafafa" fill-opacity="1"><g transform="translate(1194.404963, 436.864769)"><g><path d="M 2.515625 8.53125 L 2.515625 -22.734375 L 8.734375 -22.734375 L 8.734375 -18.90625 L 9.015625 -18.90625 C 9.296875 -19.53125 9.695312 -20.15625 10.21875 -20.78125 C 10.75 -21.414062 11.441406 -21.945312 12.296875 -22.375 C 13.148438 -22.8125 14.210938 -23.03125 15.484375 -23.03125 C 17.148438 -23.03125 18.675781 -22.597656 20.0625 -21.734375 C 21.457031 -20.867188 22.578125 -19.566406 23.421875 -17.828125 C 24.265625 -16.097656 24.6875 -13.929688 24.6875 -11.328125 C 24.6875 -8.796875 24.273438 -6.660156 23.453125 -4.921875 C 22.640625 -3.179688 21.535156 -1.863281 20.140625 -0.96875 C 18.742188 -0.0703125 17.1875 0.375 15.46875 0.375 C 14.238281 0.375 13.195312 0.171875 12.34375 -0.234375 C 11.488281 -0.640625 10.789062 -1.148438 10.25 -1.765625 C 9.71875 -2.378906 9.304688 -3.003906 9.015625 -3.640625 L 8.8125 -3.640625 L 8.8125 8.53125 Z M 8.6875 -11.359375 C 8.6875 -9.335938 9.101562 -7.710938 9.9375 -6.484375 C 10.769531 -5.253906 11.945312 -4.640625 13.46875 -4.640625 C 15.019531 -4.640625 16.203125 -5.265625 17.015625 -6.515625 C 17.835938 -7.765625 18.25 -9.378906 18.25 -11.359375 C 18.25 -13.335938 17.835938 -14.941406 17.015625 -16.171875 C 16.203125 -17.398438 15.019531 -18.015625 13.46875 -18.015625 C 11.9375 -18.015625 10.753906 -17.410156 9.921875 -16.203125 C 9.097656 -15.003906 8.6875 -13.390625 8.6875 -11.359375 Z M 8.6875 -11.359375 "/></g></g></g><g fill="#fafafa" fill-opacity="1"><g transform="translate(1220.762556, 436.864769)"><g><path d="M 9 0.421875 C 6.820312 0.421875 5.019531 -0.140625 3.59375 -1.265625 C 2.164062 -2.398438 1.453125 -4.09375 1.453125 -6.34375 C 1.453125 -8.039062 1.847656 -9.375 2.640625 -10.34375 C 3.441406 -11.3125 4.488281 -12.019531 5.78125 -12.46875 C 7.082031 -12.914062 8.484375 -13.207031 9.984375 -13.34375 C 11.960938 -13.539062 13.375 -13.75 14.21875 -13.96875 C 15.070312 -14.1875 15.5 -14.660156 15.5 -15.390625 L 15.5 -15.484375 C 15.5 -16.421875 15.203125 -17.144531 14.609375 -17.65625 C 14.023438 -18.164062 13.195312 -18.421875 12.125 -18.421875 C 10.988281 -18.421875 10.082031 -18.171875 9.40625 -17.671875 C 8.738281 -17.179688 8.296875 -16.554688 8.078125 -15.796875 L 2.25 -16.28125 C 2.6875 -18.351562 3.765625 -19.992188 5.484375 -21.203125 C 7.203125 -22.421875 9.425781 -23.03125 12.15625 -23.03125 C 13.84375 -23.03125 15.421875 -22.757812 16.890625 -22.21875 C 18.359375 -21.6875 19.539062 -20.851562 20.4375 -19.71875 C 21.34375 -18.59375 21.796875 -17.128906 21.796875 -15.328125 L 21.796875 0 L 15.8125 0 L 15.8125 -3.15625 L 15.640625 -3.15625 C 15.085938 -2.09375 14.257812 -1.226562 13.15625 -0.5625 C 12.0625 0.09375 10.675781 0.421875 9 0.421875 Z M 10.796875 -3.921875 C 12.179688 -3.921875 13.316406 -4.320312 14.203125 -5.125 C 15.085938 -5.925781 15.53125 -6.925781 15.53125 -8.125 L 15.53125 -10.53125 C 15.289062 -10.363281 14.910156 -10.21875 14.390625 -10.09375 C 13.867188 -9.96875 13.316406 -9.859375 12.734375 -9.765625 C 12.148438 -9.671875 11.625 -9.585938 11.15625 -9.515625 C 10.050781 -9.359375 9.160156 -9.046875 8.484375 -8.578125 C 7.804688 -8.117188 7.46875 -7.445312 7.46875 -6.5625 C 7.46875 -5.6875 7.78125 -5.023438 8.40625 -4.578125 C 9.039062 -4.140625 9.835938 -3.921875 10.796875 -3.921875 Z M 10.796875 -3.921875 "/></g></g></g><g fill="#fafafa" fill-opacity="1"><g transform="translate(1244.944649, 436.864769)"><g><path d="M 8.8125 -13.140625 L 8.8125 0 L 2.515625 0 L 2.515625 -22.734375 L 8.53125 -22.734375 L 8.53125 -18.71875 L 8.796875 -18.71875 C 9.304688 -20.039062 10.148438 -21.085938 11.328125 -21.859375 C 12.503906 -22.640625 13.9375 -23.03125 15.625 -23.03125 C 17.988281 -23.03125 19.882812 -22.265625 21.3125 -20.734375 C 22.75 -19.210938 23.46875 -17.125 23.46875 -14.46875 L 23.46875 0 L 17.171875 0 L 17.171875 -13.34375 C 17.179688 -14.738281 16.820312 -15.828125 16.09375 -16.609375 C 15.375 -17.390625 14.382812 -17.78125 13.125 -17.78125 C 11.851562 -17.78125 10.816406 -17.375 10.015625 -16.5625 C 9.222656 -15.75 8.820312 -14.609375 8.8125 -13.140625 Z M 8.8125 -13.140625 "/></g></g></g><g fill="#fafafa" fill-opacity="1"><g transform="translate(1270.858262, 436.864769)"><g><path d="M 2.515625 0 L 2.515625 -22.734375 L 8.8125 -22.734375 L 8.8125 0 Z M 5.671875 -25.65625 C 4.742188 -25.65625 3.941406 -25.96875 3.265625 -26.59375 C 2.597656 -27.226562 2.265625 -27.984375 2.265625 -28.859375 C 2.265625 -29.734375 2.597656 -30.476562 3.265625 -31.09375 C 3.941406 -31.71875 4.742188 -32.03125 5.671875 -32.03125 C 6.609375 -32.03125 7.410156 -31.71875 8.078125 -31.09375 C 8.753906 -30.476562 9.09375 -29.734375 9.09375 -28.859375 C 9.09375 -27.984375 8.753906 -27.226562 8.078125 -26.59375 C 7.410156 -25.96875 6.609375 -25.65625 5.671875 -25.65625 Z M 5.671875 -25.65625 "/></g></g></g><g fill="#fafafa" fill-opacity="1"><g transform="translate(1282.194531, 436.864769)"><g><path d="M 12.875 0.4375 C 10.539062 0.4375 8.53125 -0.0351562 6.84375 -0.984375 C 5.164062 -1.929688 3.867188 -3.28125 2.953125 -5.03125 C 2.046875 -6.789062 1.59375 -8.867188 1.59375 -11.265625 C 1.59375 -13.597656 2.046875 -15.644531 2.953125 -17.40625 C 3.867188 -19.175781 5.148438 -20.554688 6.796875 -21.546875 C 8.453125 -22.535156 10.394531 -23.03125 12.625 -23.03125 C 14.625 -23.03125 16.429688 -22.601562 18.046875 -21.75 C 19.660156 -20.90625 20.941406 -19.625 21.890625 -17.90625 C 22.835938 -16.195312 23.3125 -14.054688 23.3125 -11.484375 L 23.3125 -9.75 L 7.828125 -9.75 L 7.828125 -9.734375 C 7.828125 -8.035156 8.289062 -6.695312 9.21875 -5.71875 C 10.144531 -4.75 11.398438 -4.265625 12.984375 -4.265625 C 14.035156 -4.265625 14.945312 -4.484375 15.71875 -4.921875 C 16.488281 -5.367188 17.03125 -6.023438 17.34375 -6.890625 L 23.171875 -6.515625 C 22.734375 -4.398438 21.609375 -2.710938 19.796875 -1.453125 C 17.992188 -0.191406 15.6875 0.4375 12.875 0.4375 Z M 7.828125 -13.65625 L 17.375 -13.65625 C 17.363281 -15.007812 16.925781 -16.125 16.0625 -17 C 15.207031 -17.875 14.09375 -18.3125 12.71875 -18.3125 C 11.320312 -18.3125 10.175781 -17.859375 9.28125 -16.953125 C 8.382812 -16.046875 7.898438 -14.945312 7.828125 -13.65625 Z M 7.828125 -13.65625 "/></g></g></g><g fill="#fafafa" fill-opacity="1"><g transform="translate(1307.101791, 436.864769)"><g><path d="M 21.421875 -16.25 L 15.65625 -15.890625 C 15.5 -16.617188 15.097656 -17.242188 14.453125 -17.765625 C 13.816406 -18.296875 12.953125 -18.5625 11.859375 -18.5625 C 10.878906 -18.5625 10.050781 -18.351562 9.375 -17.9375 C 8.695312 -17.53125 8.363281 -16.988281 8.375 -16.3125 C 8.363281 -15.769531 8.578125 -15.3125 9.015625 -14.9375 C 9.453125 -14.5625 10.203125 -14.257812 11.265625 -14.03125 L 15.375 -13.203125 C 19.75 -12.304688 21.941406 -10.253906 21.953125 -7.046875 C 21.953125 -5.554688 21.515625 -4.25 20.640625 -3.125 C 19.765625 -2 18.566406 -1.125 17.046875 -0.5 C 15.523438 0.125 13.785156 0.4375 11.828125 0.4375 C 8.816406 0.4375 6.414062 -0.1875 4.625 -1.4375 C 2.84375 -2.695312 1.804688 -4.410156 1.515625 -6.578125 L 7.703125 -6.90625 C 7.898438 -5.976562 8.359375 -5.273438 9.078125 -4.796875 C 9.796875 -4.328125 10.71875 -4.09375 11.84375 -4.09375 C 12.945312 -4.09375 13.832031 -4.3125 14.5 -4.75 C 15.175781 -5.1875 15.519531 -5.738281 15.53125 -6.40625 C 15.507812 -7.53125 14.539062 -8.285156 12.625 -8.671875 L 8.6875 -9.453125 C 4.289062 -10.328125 2.097656 -12.492188 2.109375 -15.953125 C 2.097656 -18.140625 2.972656 -19.863281 4.734375 -21.125 C 6.503906 -22.394531 8.84375 -23.03125 11.75 -23.03125 C 14.625 -23.03125 16.882812 -22.421875 18.53125 -21.203125 C 20.1875 -19.992188 21.148438 -18.34375 21.421875 -16.25 Z M 21.421875 -16.25 "/></g></g></g><g fill="#fafafa" fill-opacity="1"><g transform="translate(1163.17485, 392.963674)"><g><path d="M 16.296875 -32.921875 L 16.296875 0 L 9.359375 0 L 9.359375 -24.40625 L 9.046875 -24.40625 C 8.691406 -23.851562 7.941406 -23.304688 6.796875 -22.765625 C 5.648438 -22.222656 4.164062 -21.953125 2.34375 -21.953125 L 2.34375 -27.484375 C 3.757812 -27.484375 5 -27.796875 6.0625 -28.421875 C 7.125 -29.054688 7.953125 -29.796875 8.546875 -30.640625 C 9.148438 -31.492188 9.460938 -32.253906 9.484375 -32.921875 Z M 16.296875 -32.921875 "/></g></g></g><g fill="#fafafa" fill-opacity="1"><g transform="translate(1184.629312, 392.963674)"><g><path d="M 14.6875 0.453125 C 12.414062 0.453125 10.390625 0.0351562 8.609375 -0.796875 C 6.835938 -1.640625 5.429688 -2.796875 4.390625 -4.265625 C 3.359375 -5.734375 2.820312 -7.414062 2.78125 -9.3125 L 9.53125 -9.3125 C 9.613281 -8.03125 10.148438 -6.992188 11.140625 -6.203125 C 12.128906 -5.410156 13.3125 -5.015625 14.6875 -5.015625 C 16.320312 -5.015625 17.660156 -5.550781 18.703125 -6.625 C 19.753906 -7.695312 20.28125 -9.085938 20.28125 -10.796875 C 20.28125 -12.523438 19.75 -13.929688 18.6875 -15.015625 C 17.625 -16.109375 16.257812 -16.660156 14.59375 -16.671875 C 13.613281 -16.671875 12.675781 -16.472656 11.78125 -16.078125 C 10.882812 -15.679688 10.179688 -15.140625 9.671875 -14.453125 L 3.484375 -15.5625 L 5.046875 -32.921875 L 25.171875 -32.921875 L 25.171875 -27.234375 L 10.78125 -27.234375 L 9.9375 -18.984375 L 10.125 -18.984375 C 10.707031 -19.796875 11.582031 -20.46875 12.75 -21 C 13.914062 -21.539062 15.222656 -21.8125 16.671875 -21.8125 C 18.648438 -21.8125 20.414062 -21.34375 21.96875 -20.40625 C 23.519531 -19.476562 24.742188 -18.195312 25.640625 -16.5625 C 26.546875 -14.9375 26.992188 -13.078125 26.984375 -10.984375 C 26.992188 -8.765625 26.484375 -6.789062 25.453125 -5.0625 C 24.421875 -3.34375 22.976562 -1.992188 21.125 -1.015625 C 19.28125 -0.0351562 17.132812 0.453125 14.6875 0.453125 Z M 14.6875 0.453125 "/></g></g></g><g fill="#fafafa" fill-opacity="1"><g transform="translate(1213.797739, 392.963674)"><g><path d="M 15.578125 0.71875 C 12.804688 0.707031 10.425781 0.03125 8.4375 -1.3125 C 6.457031 -2.664062 4.929688 -4.625 3.859375 -7.1875 C 2.796875 -9.75 2.269531 -12.828125 2.28125 -16.421875 C 2.289062 -21.816406 3.476562 -25.988281 5.84375 -28.9375 C 8.207031 -31.894531 11.453125 -33.375 15.578125 -33.375 C 18.328125 -33.375 20.695312 -32.707031 22.6875 -31.375 C 24.675781 -30.050781 26.207031 -28.125 27.28125 -25.59375 C 28.351562 -23.070312 28.882812 -20.015625 28.875 -16.421875 C 28.863281 -11.003906 27.675781 -6.789062 25.3125 -3.78125 C 22.957031 -0.78125 19.710938 0.71875 15.578125 0.71875 Z M 15.578125 -5.046875 C 17.460938 -5.046875 18.96875 -5.992188 20.09375 -7.890625 C 21.21875 -9.785156 21.773438 -12.628906 21.765625 -16.421875 C 21.765625 -20.160156 21.203125 -22.96875 20.078125 -24.84375 C 18.953125 -26.726562 17.453125 -27.671875 15.578125 -27.671875 C 13.703125 -27.671875 12.203125 -26.726562 11.078125 -24.84375 C 9.953125 -22.96875 9.382812 -20.160156 9.375 -16.421875 C 9.363281 -12.628906 9.921875 -9.785156 11.046875 -7.890625 C 12.179688 -5.992188 13.691406 -5.046875 15.578125 -5.046875 Z M 15.578125 -5.046875 "/></g></g></g><g fill="#fafafa" fill-opacity="1"><g transform="translate(1244.942868, 392.963674)"><g><path d="M 12.34375 -1.9375 L 12.34375 -10.3125 L 3.96875 -10.3125 L 3.96875 -16.078125 L 12.34375 -16.078125 L 12.34375 -24.453125 L 18.09375 -24.453125 L 18.09375 -16.078125 L 26.46875 -16.078125 L 26.46875 -10.3125 L 18.09375 -10.3125 L 18.09375 -1.9375 Z M 12.34375 -1.9375 "/></g></g></g></svg>