<svg xmlns="http://www.w3.org/2000/svg" xmlns:xlink="http://www.w3.org/1999/xlink" width="3240" zoomAndPan="magnify" viewBox="0 0 2430 809.999993" height="1080" preserveAspectRatio="xMidYMid meet" version="1.0"><defs><g/><clipPath id="1c12f871e9"><path d="M 1070.128906 280.503906 L 1359.976562 280.503906 L 1359.976562 529.496094 L 1070.128906 529.496094 Z M 1070.128906 280.503906 " clip-rule="nonzero"/></clipPath><clipPath id="57af6c28c9"><path d="M 1359.871094 405 L 1287.433594 529.496094 L 1142.566406 529.496094 L 1070.128906 405 L 1142.566406 280.503906 L 1287.433594 280.503906 Z M 1359.871094 405 " clip-rule="nonzero"/></clipPath><clipPath id="83dd466dfa"><path d="M 1070.132812 280.503906 L 1359.863281 280.503906 L 1359.863281 529.488281 L 1070.132812 529.488281 Z M 1070.132812 280.503906 " clip-rule="nonzero"/></clipPath><clipPath id="9fd5f612a8"><path d="M 1359.863281 404.996094 L 1287.433594 529.488281 L 1142.566406 529.488281 L 1070.132812 404.996094 L 1142.566406 280.503906 L 1287.433594 280.503906 Z M 1359.863281 404.996094 " clip-rule="nonzero"/></clipPath></defs><rect x="-243" width="2916" fill="#ffffff" y="-80.999999" height="971.999992" fill-opacity="1"/><rect x="-243" width="2916" fill="#ffffff" y="-80.999999" height="971.999992" fill-opacity="1"/><g clip-path="url(#1c12f871e9)"><g clip-path="url(#57af6c28c9)"><path fill="#56b2bb" d="M 1070.128906 280.503906 L 1359.976562 280.503906 L 1359.976562 529.496094 L 1070.128906 529.496094 Z M 1070.128906 280.503906 " fill-opacity="1" fill-rule="nonzero"/></g></g><g clip-path="url(#83dd466dfa)"><g clip-path="url(#9fd5f612a8)"><path stroke-linecap="butt" transform="matrix(0.678843, 0, 0, 0.678843, 1070.134301, 280.502351)" fill="none" stroke-linejoin="miter" d="M 426.798357 183.39113 L 320.102535 366.779968 L 106.699384 366.779968 L -0.00219221 183.39113 L 106.699384 0.00229149 L 320.102535 0.00229149 Z M 426.798357 183.39113 " stroke="#0a0f22" stroke-width="13.257856" stroke-opacity="1" stroke-miterlimit="4"/></g></g><g fill="#fafafa" fill-opacity="1"><g transform="translate(1147.934678, 383.364171)"><g><path d="M 14.84375 0.453125 C 12.425781 0.453125 10.285156 0.0390625 8.421875 -0.78125 C 6.554688 -1.613281 5.085938 -2.765625 4.015625 -4.234375 C 2.941406 -5.703125 2.382812 -7.394531 2.34375 -9.3125 L 9.359375 -9.3125 C 9.421875 -8.101562 9.96875 -7.128906 11 -6.390625 C 12.03125 -5.648438 13.316406 -5.28125 14.859375 -5.28125 C 16.453125 -5.28125 17.753906 -5.691406 18.765625 -6.515625 C 19.773438 -7.335938 20.273438 -8.398438 20.265625 -9.703125 C 20.273438 -11.035156 19.734375 -12.117188 18.640625 -12.953125 C 17.554688 -13.796875 16.082031 -14.21875 14.21875 -14.21875 L 11.15625 -14.21875 L 11.15625 -19.34375 L 14.21875 -19.34375 C 15.8125 -19.34375 17.101562 -19.738281 18.09375 -20.53125 C 19.09375 -21.332031 19.585938 -22.378906 19.578125 -23.671875 C 19.585938 -24.921875 19.160156 -25.929688 18.296875 -26.703125 C 17.429688 -27.472656 16.300781 -27.859375 14.90625 -27.859375 C 13.476562 -27.859375 12.257812 -27.484375 11.25 -26.734375 C 10.238281 -25.984375 9.710938 -24.976562 9.671875 -23.71875 L 3 -23.71875 C 3.03125 -25.625 3.570312 -27.300781 4.625 -28.75 C 5.675781 -30.195312 7.09375 -31.328125 8.875 -32.140625 C 10.664062 -32.960938 12.6875 -33.375 14.9375 -33.375 C 17.207031 -33.375 19.191406 -32.957031 20.890625 -32.125 C 22.597656 -31.300781 23.925781 -30.191406 24.875 -28.796875 C 25.820312 -27.398438 26.289062 -25.832031 26.28125 -24.09375 C 26.289062 -22.25 25.71875 -20.710938 24.5625 -19.484375 C 23.414062 -18.253906 21.921875 -17.472656 20.078125 -17.140625 L 20.078125 -16.875 C 22.492188 -16.570312 24.335938 -15.734375 25.609375 -14.359375 C 26.878906 -12.992188 27.507812 -11.289062 27.5 -9.25 C 27.507812 -7.375 26.96875 -5.707031 25.875 -4.25 C 24.789062 -2.789062 23.296875 -1.640625 21.390625 -0.796875 C 19.484375 0.0351562 17.300781 0.453125 14.84375 0.453125 Z M 14.84375 0.453125 "/></g></g></g><g fill="#fafafa" fill-opacity="1"><g transform="translate(1177.778078, 383.364171)"><g><path d="M 6.734375 0.421875 C 5.671875 0.421875 4.757812 0.046875 4 -0.703125 C 3.238281 -1.453125 2.863281 -2.363281 2.875 -3.4375 C 2.863281 -4.488281 3.238281 -5.390625 4 -6.140625 C 4.757812 -6.890625 5.671875 -7.265625 6.734375 -7.265625 C 7.765625 -7.265625 8.660156 -6.890625 9.421875 -6.140625 C 10.191406 -5.390625 10.582031 -4.488281 10.59375 -3.4375 C 10.582031 -2.363281 10.191406 -1.453125 9.421875 -0.703125 C 8.660156 0.046875 7.765625 0.421875 6.734375 0.421875 Z M 6.734375 0.421875 "/></g></g></g><g fill="#fafafa" fill-opacity="1"><g transform="translate(1191.245374, 383.364171)"><g><path d="M 14.6875 0.453125 C 12.414062 0.453125 10.390625 0.0351562 8.609375 -0.796875 C 6.835938 -1.640625 5.429688 -2.796875 4.390625 -4.265625 C 3.359375 -5.734375 2.820312 -7.414062 2.78125 -9.3125 L 9.53125 -9.3125 C 9.613281 -8.03125 10.148438 -6.992188 11.140625 -6.203125 C 12.128906 -5.410156 13.3125 -5.015625 14.6875 -5.015625 C 16.320312 -5.015625 17.660156 -5.550781 18.703125 -6.625 C 19.753906 -7.695312 20.28125 -9.085938 20.28125 -10.796875 C 20.28125 -12.523438 19.75 -13.929688 18.6875 -15.015625 C 17.625 -16.109375 16.257812 -16.660156 14.59375 -16.671875 C 13.613281 -16.671875 12.675781 -16.472656 11.78125 -16.078125 C 10.882812 -15.679688 10.179688 -15.140625 9.671875 -14.453125 L 3.484375 -15.5625 L 5.046875 -32.921875 L 25.171875 -32.921875 L 25.171875 -27.234375 L 10.78125 -27.234375 L 9.9375 -18.984375 L 10.125 -18.984375 C 10.707031 -19.796875 11.582031 -20.46875 12.75 -21 C 13.914062 -21.539062 15.222656 -21.8125 16.671875 -21.8125 C 18.648438 -21.8125 20.414062 -21.34375 21.96875 -20.40625 C 23.519531 -19.476562 24.742188 -18.195312 25.640625 -16.5625 C 26.546875 -14.9375 26.992188 -13.078125 26.984375 -10.984375 C 26.992188 -8.765625 26.484375 -6.789062 25.453125 -5.0625 C 24.421875 -3.34375 22.976562 -1.992188 21.125 -1.015625 C 19.28125 -0.0351562 17.132812 0.453125 14.6875 0.453125 Z M 14.6875 0.453125 "/></g></g></g><g fill="#fafafa" fill-opacity="1"><g transform="translate(1220.413801, 383.364171)"><g><path d="M 2.859375 0 L 2.859375 -32.921875 L 9.828125 -32.921875 L 9.828125 -18.40625 L 10.25 -18.40625 L 22.109375 -32.921875 L 30.4375 -32.921875 L 18.234375 -18.1875 L 30.59375 0 L 22.265625 0 L 13.25 -13.53125 L 9.828125 -9.359375 L 9.828125 0 Z M 2.859375 0 "/></g></g></g><g fill="#fafafa" fill-opacity="1"><g transform="translate(1251.623215, 383.364171)"><g><path d="M 12.34375 -1.9375 L 12.34375 -10.3125 L 3.96875 -10.3125 L 3.96875 -16.078125 L 12.34375 -16.078125 L 12.34375 -24.453125 L 18.09375 -24.453125 L 18.09375 -16.078125 L 26.46875 -16.078125 L 26.46875 -10.3125 L 18.09375 -10.3125 L 18.09375 -1.9375 Z M 12.34375 -1.9375 "/></g></g></g><g fill="#fafafa" fill-opacity="1"><g transform="translate(1096.5665, 429.001716)"><g><path d="M 2.28125 0 L 2.28125 -26.203125 L 12.609375 -26.203125 C 15.585938 -26.203125 17.894531 -25.425781 19.53125 -23.875 C 21.175781 -22.320312 22 -20.242188 22 -17.640625 C 22 -15.847656 21.597656 -14.316406 20.796875 -13.046875 C 20.003906 -11.773438 18.863281 -10.820312 17.375 -10.1875 L 22.9375 0 L 16.828125 0 L 11.859375 -9.296875 L 7.8125 -9.296875 L 7.8125 0 Z M 7.8125 -13.734375 L 11.578125 -13.734375 C 14.722656 -13.734375 16.296875 -15.035156 16.296875 -17.640625 C 16.296875 -20.328125 14.710938 -21.671875 11.546875 -21.671875 L 7.8125 -21.671875 Z M 7.8125 -13.734375 "/></g></g></g><g fill="#fafafa" fill-opacity="1"><g transform="translate(1120.204135, 429.001716)"><g><path d="M 11.125 0.390625 C 9.113281 0.390625 7.378906 -0.0195312 5.921875 -0.84375 C 4.460938 -1.664062 3.335938 -2.832031 2.546875 -4.34375 C 1.765625 -5.863281 1.375 -7.660156 1.375 -9.734375 C 1.375 -11.753906 1.765625 -13.523438 2.546875 -15.046875 C 3.335938 -16.578125 4.445312 -17.769531 5.875 -18.625 C 7.300781 -19.476562 8.984375 -19.90625 10.921875 -19.90625 C 12.648438 -19.90625 14.210938 -19.535156 15.609375 -18.796875 C 17.003906 -18.066406 18.109375 -16.960938 18.921875 -15.484375 C 19.742188 -14.003906 20.15625 -12.148438 20.15625 -9.921875 L 20.15625 -8.4375 L 6.765625 -8.4375 L 6.765625 -8.421875 C 6.765625 -6.953125 7.164062 -5.796875 7.96875 -4.953125 C 8.769531 -4.109375 9.851562 -3.6875 11.21875 -3.6875 C 12.132812 -3.6875 12.925781 -3.878906 13.59375 -4.265625 C 14.257812 -4.648438 14.726562 -5.21875 15 -5.96875 L 20.03125 -5.625 C 19.65625 -3.800781 18.6875 -2.34375 17.125 -1.25 C 15.5625 -0.15625 13.5625 0.390625 11.125 0.390625 Z M 6.765625 -11.8125 L 15.015625 -11.8125 C 15.015625 -12.976562 14.640625 -13.941406 13.890625 -14.703125 C 13.148438 -15.460938 12.1875 -15.84375 11 -15.84375 C 9.789062 -15.84375 8.796875 -15.445312 8.015625 -14.65625 C 7.242188 -13.875 6.828125 -12.925781 6.765625 -11.8125 Z M 6.765625 -11.8125 "/></g></g></g><g fill="#fafafa" fill-opacity="1"><g transform="translate(1141.731262, 429.001716)"><g><path d="M 11.03125 7.65625 C 8.382812 7.65625 6.304688 7.132812 4.796875 6.09375 C 3.285156 5.050781 2.367188 3.785156 2.046875 2.296875 L 7.09375 1.625 C 7.3125 2.15625 7.742188 2.640625 8.390625 3.078125 C 9.035156 3.515625 9.957031 3.734375 11.15625 3.734375 C 12.34375 3.734375 13.320312 3.453125 14.09375 2.890625 C 14.863281 2.328125 15.25 1.398438 15.25 0.109375 L 15.25 -3.484375 L 15.015625 -3.484375 C 14.660156 -2.671875 14.03125 -1.929688 13.125 -1.265625 C 12.21875 -0.609375 10.984375 -0.28125 9.421875 -0.28125 C 7.941406 -0.28125 6.597656 -0.625 5.390625 -1.3125 C 4.179688 -2.007812 3.222656 -3.066406 2.515625 -4.484375 C 1.804688 -5.898438 1.453125 -7.691406 1.453125 -9.859375 C 1.453125 -12.097656 1.816406 -13.957031 2.546875 -15.4375 C 3.273438 -16.925781 4.238281 -18.039062 5.4375 -18.78125 C 6.644531 -19.53125 7.96875 -19.90625 9.40625 -19.90625 C 10.507812 -19.90625 11.429688 -19.71875 12.171875 -19.34375 C 12.910156 -18.976562 13.507812 -18.519531 13.96875 -17.96875 C 14.425781 -17.425781 14.773438 -16.890625 15.015625 -16.359375 L 15.21875 -16.359375 L 15.21875 -19.65625 L 20.640625 -19.65625 L 20.640625 0.1875 C 20.640625 1.820312 20.226562 3.191406 19.40625 4.296875 C 18.582031 5.410156 17.445312 6.25 16 6.8125 C 14.5625 7.375 12.90625 7.65625 11.03125 7.65625 Z M 11.140625 -4.375 C 12.453125 -4.375 13.46875 -4.859375 14.1875 -5.828125 C 14.914062 -6.804688 15.28125 -8.160156 15.28125 -9.890625 C 15.28125 -11.609375 14.921875 -12.984375 14.203125 -14.015625 C 13.484375 -15.054688 12.460938 -15.578125 11.140625 -15.578125 C 9.796875 -15.578125 8.769531 -15.046875 8.0625 -13.984375 C 7.363281 -12.929688 7.015625 -11.566406 7.015625 -9.890625 C 7.015625 -8.191406 7.367188 -6.847656 8.078125 -5.859375 C 8.785156 -4.867188 9.804688 -4.375 11.140625 -4.375 Z M 11.140625 -4.375 "/></g></g></g><g fill="#fafafa" fill-opacity="1"><g transform="translate(1164.537483, 429.001716)"><g><path d="M 2.171875 0 L 2.171875 -19.65625 L 7.625 -19.65625 L 7.625 0 Z M 4.921875 -22.1875 C 4.117188 -22.1875 3.425781 -22.457031 2.84375 -23 C 2.257812 -23.539062 1.96875 -24.191406 1.96875 -24.953125 C 1.96875 -25.710938 2.257812 -26.359375 2.84375 -26.890625 C 3.425781 -27.429688 4.117188 -27.703125 4.921875 -27.703125 C 5.734375 -27.703125 6.425781 -27.429688 7 -26.890625 C 7.582031 -26.359375 7.875 -25.710938 7.875 -24.953125 C 7.875 -24.191406 7.582031 -23.539062 7 -23 C 6.425781 -22.457031 5.734375 -22.1875 4.921875 -22.1875 Z M 4.921875 -22.1875 "/></g></g></g><g fill="#fafafa" fill-opacity="1"><g transform="translate(1174.335334, 429.001716)"><g><path d="M 18.53125 -14.046875 L 13.53125 -13.734375 C 13.394531 -14.367188 13.050781 -14.910156 12.5 -15.359375 C 11.945312 -15.816406 11.195312 -16.046875 10.25 -16.046875 C 9.40625 -16.046875 8.691406 -15.867188 8.109375 -15.515625 C 7.523438 -15.160156 7.234375 -14.6875 7.234375 -14.09375 C 7.234375 -13.625 7.421875 -13.226562 7.796875 -12.90625 C 8.179688 -12.582031 8.828125 -12.320312 9.734375 -12.125 L 13.296875 -11.40625 C 17.078125 -10.632812 18.96875 -8.863281 18.96875 -6.09375 C 18.96875 -4.800781 18.585938 -3.664062 17.828125 -2.6875 C 17.078125 -1.71875 16.046875 -0.960938 14.734375 -0.421875 C 13.421875 0.117188 11.914062 0.390625 10.21875 0.390625 C 7.625 0.390625 5.550781 -0.148438 4 -1.234375 C 2.457031 -2.328125 1.5625 -3.8125 1.3125 -5.6875 L 6.671875 -5.96875 C 6.835938 -5.164062 7.226562 -4.5625 7.84375 -4.15625 C 8.46875 -3.75 9.265625 -3.546875 10.234375 -3.546875 C 11.191406 -3.546875 11.960938 -3.734375 12.546875 -4.109375 C 13.128906 -4.484375 13.425781 -4.960938 13.4375 -5.546875 C 13.40625 -6.515625 12.566406 -7.164062 10.921875 -7.5 L 7.515625 -8.171875 C 3.703125 -8.929688 1.804688 -10.804688 1.828125 -13.796875 C 1.816406 -15.691406 2.570312 -17.179688 4.09375 -18.265625 C 5.625 -19.359375 7.644531 -19.90625 10.15625 -19.90625 C 12.632812 -19.90625 14.585938 -19.378906 16.015625 -18.328125 C 17.453125 -17.285156 18.289062 -15.859375 18.53125 -14.046875 Z M 18.53125 -14.046875 "/></g></g></g><g fill="#fafafa" fill-opacity="1"><g transform="translate(1194.570579, 429.001716)"><g><path d="M 12.625 -19.65625 L 12.625 -15.5625 L 8.9375 -15.5625 L 8.9375 -6.046875 C 8.9375 -5.285156 9.101562 -4.773438 9.4375 -4.515625 C 9.78125 -4.253906 10.226562 -4.125 10.78125 -4.125 C 11.03125 -4.125 11.28125 -4.144531 11.53125 -4.1875 C 11.789062 -4.238281 11.988281 -4.273438 12.125 -4.296875 L 12.984375 -0.25 C 12.710938 -0.15625 12.328125 -0.0507812 11.828125 0.0625 C 11.335938 0.175781 10.738281 0.242188 10.03125 0.265625 C 8.050781 0.347656 6.460938 -0.078125 5.265625 -1.015625 C 4.066406 -1.960938 3.472656 -3.398438 3.484375 -5.328125 L 3.484375 -15.5625 L 0.796875 -15.5625 L 0.796875 -19.65625 L 3.484375 -19.65625 L 3.484375 -24.359375 L 8.9375 -24.359375 L 8.9375 -19.65625 Z M 12.625 -19.65625 "/></g></g></g><g fill="#fafafa" fill-opacity="1"><g transform="translate(1208.56385, 429.001716)"><g><path d="M 2.171875 0 L 2.171875 -19.65625 L 7.453125 -19.65625 L 7.453125 -16.21875 L 7.671875 -16.21875 C 8.023438 -17.4375 8.617188 -18.359375 9.453125 -18.984375 C 10.296875 -19.617188 11.273438 -19.9375 12.390625 -19.9375 C 12.910156 -19.9375 13.394531 -19.867188 13.84375 -19.734375 C 14.300781 -19.609375 14.710938 -19.4375 15.078125 -19.21875 L 13.4375 -14.71875 C 13.175781 -14.84375 12.894531 -14.945312 12.59375 -15.03125 C 12.289062 -15.125 11.953125 -15.171875 11.578125 -15.171875 C 10.472656 -15.171875 9.539062 -14.796875 8.78125 -14.046875 C 8.019531 -13.296875 7.632812 -12.320312 7.625 -11.125 L 7.625 0 Z M 2.171875 0 "/></g></g></g><g fill="#fafafa" fill-opacity="1"><g transform="translate(1224.002498, 429.001716)"><g><path d="M 7.78125 0.375 C 5.90625 0.375 4.347656 -0.113281 3.109375 -1.09375 C 1.867188 -2.082031 1.25 -3.546875 1.25 -5.484375 C 1.25 -6.953125 1.59375 -8.101562 2.28125 -8.9375 C 2.976562 -9.78125 3.882812 -10.394531 5 -10.78125 C 6.125 -11.164062 7.335938 -11.421875 8.640625 -11.546875 C 10.347656 -11.710938 11.566406 -11.890625 12.296875 -12.078125 C 13.023438 -12.265625 13.390625 -12.675781 13.390625 -13.3125 L 13.390625 -13.390625 C 13.390625 -14.191406 13.132812 -14.816406 12.625 -15.265625 C 12.125 -15.710938 11.410156 -15.9375 10.484375 -15.9375 C 9.503906 -15.9375 8.722656 -15.722656 8.140625 -15.296875 C 7.554688 -14.867188 7.171875 -14.328125 6.984375 -13.671875 L 1.9375 -14.078125 C 2.320312 -15.867188 3.253906 -17.285156 4.734375 -18.328125 C 6.222656 -19.378906 8.144531 -19.90625 10.5 -19.90625 C 11.957031 -19.90625 13.320312 -19.675781 14.59375 -19.21875 C 15.863281 -18.757812 16.890625 -18.039062 17.671875 -17.0625 C 18.453125 -16.082031 18.84375 -14.8125 18.84375 -13.25 L 18.84375 0 L 13.671875 0 L 13.671875 -2.71875 L 13.53125 -2.71875 C 13.050781 -1.8125 12.332031 -1.066406 11.375 -0.484375 C 10.425781 0.0859375 9.226562 0.375 7.78125 0.375 Z M 9.34375 -3.390625 C 10.53125 -3.390625 11.507812 -3.734375 12.28125 -4.421875 C 13.050781 -5.117188 13.4375 -5.988281 13.4375 -7.03125 L 13.4375 -9.109375 C 13.21875 -8.960938 12.882812 -8.832031 12.4375 -8.71875 C 11.988281 -8.613281 11.507812 -8.519531 11 -8.4375 C 10.5 -8.351562 10.046875 -8.285156 9.640625 -8.234375 C 8.691406 -8.085938 7.925781 -7.8125 7.34375 -7.40625 C 6.757812 -7.007812 6.46875 -6.429688 6.46875 -5.671875 C 6.46875 -4.921875 6.738281 -4.351562 7.28125 -3.96875 C 7.820312 -3.582031 8.507812 -3.390625 9.34375 -3.390625 Z M 9.34375 -3.390625 "/></g></g></g><g fill="#fafafa" fill-opacity="1"><g transform="translate(1244.902875, 429.001716)"><g><path d="M 12.625 -19.65625 L 12.625 -15.5625 L 8.9375 -15.5625 L 8.9375 -6.046875 C 8.9375 -5.285156 9.101562 -4.773438 9.4375 -4.515625 C 9.78125 -4.253906 10.226562 -4.125 10.78125 -4.125 C 11.03125 -4.125 11.28125 -4.144531 11.53125 -4.1875 C 11.789062 -4.238281 11.988281 -4.273438 12.125 -4.296875 L 12.984375 -0.25 C 12.710938 -0.15625 12.328125 -0.0507812 11.828125 0.0625 C 11.335938 0.175781 10.738281 0.242188 10.03125 0.265625 C 8.050781 0.347656 6.460938 -0.078125 5.265625 -1.015625 C 4.066406 -1.960938 3.472656 -3.398438 3.484375 -5.328125 L 3.484375 -15.5625 L 0.796875 -15.5625 L 0.796875 -19.65625 L 3.484375 -19.65625 L 3.484375 -24.359375 L 8.9375 -24.359375 L 8.9375 -19.65625 Z M 12.625 -19.65625 "/></g></g></g><g fill="#fafafa" fill-opacity="1"><g transform="translate(1258.896146, 429.001716)"><g><path d="M 2.171875 0 L 2.171875 -19.65625 L 7.625 -19.65625 L 7.625 0 Z M 4.921875 -22.1875 C 4.117188 -22.1875 3.425781 -22.457031 2.84375 -23 C 2.257812 -23.539062 1.96875 -24.191406 1.96875 -24.953125 C 1.96875 -25.710938 2.257812 -26.359375 2.84375 -26.890625 C 3.425781 -27.429688 4.117188 -27.703125 4.921875 -27.703125 C 5.734375 -27.703125 6.425781 -27.429688 7 -26.890625 C 7.582031 -26.359375 7.875 -25.710938 7.875 -24.953125 C 7.875 -24.191406 7.582031 -23.539062 7 -23 C 6.425781 -22.457031 5.734375 -22.1875 4.921875 -22.1875 Z M 4.921875 -22.1875 "/></g></g></g><g fill="#fafafa" fill-opacity="1"><g transform="translate(1268.693988, 429.001716)"><g><path d="M 11.0625 0.390625 C 9.070312 0.390625 7.351562 -0.03125 5.90625 -0.875 C 4.457031 -1.726562 3.335938 -2.914062 2.546875 -4.4375 C 1.765625 -5.96875 1.375 -7.738281 1.375 -9.75 C 1.375 -11.78125 1.765625 -13.554688 2.546875 -15.078125 C 3.335938 -16.597656 4.457031 -17.78125 5.90625 -18.625 C 7.351562 -19.476562 9.070312 -19.90625 11.0625 -19.90625 C 13.039062 -19.90625 14.753906 -19.476562 16.203125 -18.625 C 17.648438 -17.78125 18.765625 -16.597656 19.546875 -15.078125 C 20.335938 -13.554688 20.734375 -11.78125 20.734375 -9.75 C 20.734375 -7.738281 20.335938 -5.96875 19.546875 -4.4375 C 18.765625 -2.914062 17.648438 -1.726562 16.203125 -0.875 C 14.753906 -0.03125 13.039062 0.390625 11.0625 0.390625 Z M 11.078125 -3.84375 C 12.429688 -3.84375 13.453125 -4.40625 14.140625 -5.53125 C 14.835938 -6.65625 15.1875 -8.070312 15.1875 -9.78125 C 15.1875 -11.5 14.835938 -12.921875 14.140625 -14.046875 C 13.453125 -15.179688 12.429688 -15.75 11.078125 -15.75 C 9.703125 -15.75 8.664062 -15.179688 7.96875 -14.046875 C 7.269531 -12.921875 6.921875 -11.5 6.921875 -9.78125 C 6.921875 -8.070312 7.269531 -6.65625 7.96875 -5.53125 C 8.664062 -4.40625 9.703125 -3.84375 11.078125 -3.84375 Z M 11.078125 -3.84375 "/></g></g></g><g fill="#fafafa" fill-opacity="1"><g transform="translate(1290.796701, 429.001716)"><g><path d="M 7.625 -11.359375 L 7.625 0 L 2.171875 0 L 2.171875 -19.65625 L 7.375 -19.65625 L 7.375 -16.1875 L 7.59375 -16.1875 C 8.039062 -17.332031 8.773438 -18.238281 9.796875 -18.90625 C 10.816406 -19.570312 12.054688 -19.90625 13.515625 -19.90625 C 15.554688 -19.90625 17.195312 -19.242188 18.4375 -17.921875 C 19.675781 -16.609375 20.296875 -14.804688 20.296875 -12.515625 L 20.296875 0 L 14.84375 0 L 14.84375 -11.546875 C 14.851562 -12.742188 14.546875 -13.679688 13.921875 -14.359375 C 13.296875 -15.035156 12.4375 -15.375 11.34375 -15.375 C 10.25 -15.375 9.359375 -15.019531 8.671875 -14.3125 C 7.984375 -13.613281 7.632812 -12.628906 7.625 -11.359375 Z M 7.625 -11.359375 "/></g></g></g><g fill="#fafafa" fill-opacity="1"><g transform="translate(1313.193617, 429.001716)"><g><path d="M 18.53125 -14.046875 L 13.53125 -13.734375 C 13.394531 -14.367188 13.050781 -14.910156 12.5 -15.359375 C 11.945312 -15.816406 11.195312 -16.046875 10.25 -16.046875 C 9.40625 -16.046875 8.691406 -15.867188 8.109375 -15.515625 C 7.523438 -15.160156 7.234375 -14.6875 7.234375 -14.09375 C 7.234375 -13.625 7.421875 -13.226562 7.796875 -12.90625 C 8.179688 -12.582031 8.828125 -12.320312 9.734375 -12.125 L 13.296875 -11.40625 C 17.078125 -10.632812 18.96875 -8.863281 18.96875 -6.09375 C 18.96875 -4.800781 18.585938 -3.664062 17.828125 -2.6875 C 17.078125 -1.71875 16.046875 -0.960938 14.734375 -0.421875 C 13.421875 0.117188 11.914062 0.390625 10.21875 0.390625 C 7.625 0.390625 5.550781 -0.148438 4 -1.234375 C 2.457031 -2.328125 1.5625 -3.8125 1.3125 -5.6875 L 6.671875 -5.96875 C 6.835938 -5.164062 7.226562 -4.5625 7.84375 -4.15625 C 8.46875 -3.75 9.265625 -3.546875 10.234375 -3.546875 C 11.191406 -3.546875 11.960938 -3.734375 12.546875 -4.109375 C 13.128906 -4.484375 13.425781 -4.960938 13.4375 -5.546875 C 13.40625 -6.515625 12.566406 -7.164062 10.921875 -7.5 L 7.515625 -8.171875 C 3.703125 -8.929688 1.804688 -10.804688 1.828125 -13.796875 C 1.816406 -15.691406 2.570312 -17.179688 4.09375 -18.265625 C 5.625 -19.359375 7.644531 -19.90625 10.15625 -19.90625 C 12.632812 -19.90625 14.585938 -19.378906 16.015625 -18.328125 C 17.453125 -17.285156 18.289062 -15.859375 18.53125 -14.046875 Z M 18.53125 -14.046875 "/></g></g></g></svg>