<svg xmlns="http://www.w3.org/2000/svg" xmlns:xlink="http://www.w3.org/1999/xlink" width="3240" zoomAndPan="magnify" viewBox="0 0 2430 809.999993" height="1080" preserveAspectRatio="xMidYMid meet" version="1.0"><defs><g/><clipPath id="20015d5436"><path d="M 1070.128906 280.503906 L 1359.976562 280.503906 L 1359.976562 529.496094 L 1070.128906 529.496094 Z M 1070.128906 280.503906 " clip-rule="nonzero"/></clipPath><clipPath id="51bcff4078"><path d="M 1359.871094 405 L 1287.433594 529.496094 L 1142.566406 529.496094 L 1070.128906 405 L 1142.566406 280.503906 L 1287.433594 280.503906 Z M 1359.871094 405 " clip-rule="nonzero"/></clipPath><clipPath id="6d8976b877"><path d="M 1070.132812 280.503906 L 1359.863281 280.503906 L 1359.863281 529.488281 L 1070.132812 529.488281 Z M 1070.132812 280.503906 " clip-rule="nonzero"/></clipPath><clipPath id="fe77ea8762"><path d="M 1359.863281 404.996094 L 1287.433594 529.488281 L 1142.566406 529.488281 L 1070.132812 404.996094 L 1142.566406 280.503906 L 1287.433594 280.503906 Z M 1359.863281 404.996094 " clip-rule="nonzero"/></clipPath></defs><rect x="-243" width="2916" fill="#ffffff" y="-80.999999" height="971.999992" fill-opacity="1"/><rect x="-243" width="2916" fill="#ffffff" y="-80.999999" height="971.999992" fill-opacity="1"/><g clip-path="url(#20015d5436)"><g clip-path="url(#51bcff4078)"><path fill="#56b2bb" d="M 1070.128906 280.503906 L 1359.976562 280.503906 L 1359.976562 529.496094 L 1070.128906 529.496094 Z M 1070.128906 280.503906 " fill-opacity="1" fill-rule="nonzero"/></g></g><g clip-path="url(#6d8976b877)"><g clip-path="url(#fe77ea8762)"><path stroke-linecap="butt" transform="matrix(0.678843, 0, 0, 0.678843, 1070.134301, 280.502351)" fill="none" stroke-linejoin="miter" d="M 426.798357 183.39113 L 320.102535 366.779968 L 106.699384 366.779968 L -0.00219221 183.39113 L 106.699384 0.00229149 L 320.102535 0.00229149 Z M 426.798357 183.39113 " stroke="#0a0f22" stroke-width="13.257856" stroke-opacity="1" stroke-miterlimit="4"/></g></g><g fill="#fafafa" fill-opacity="1"><g transform="translate(1154.481301, 388.919018)"><g><path d="M 17.265625 -34.890625 L 17.265625 0 L 9.90625 0 L 9.90625 -25.859375 L 9.59375 -25.859375 C 9.21875 -25.273438 8.421875 -24.695312 7.203125 -24.125 C 5.992188 -23.550781 4.421875 -23.265625 2.484375 -23.265625 L 2.484375 -29.125 C 3.984375 -29.125 5.296875 -29.457031 6.421875 -30.125 C 7.546875 -30.789062 8.425781 -31.570312 9.0625 -32.46875 C 9.695312 -33.375 10.023438 -34.179688 10.046875 -34.890625 Z M 17.265625 -34.890625 "/></g></g></g><g fill="#fafafa" fill-opacity="1"><g transform="translate(1177.220089, 388.919018)"><g><path d="M 16.5 0.765625 C 13.570312 0.753906 11.054688 0.0351562 8.953125 -1.390625 C 6.847656 -2.828125 5.226562 -4.898438 4.09375 -7.609375 C 2.96875 -10.328125 2.410156 -13.59375 2.421875 -17.40625 C 2.429688 -23.125 3.6875 -27.546875 6.1875 -30.671875 C 8.695312 -33.796875 12.132812 -35.359375 16.5 -35.359375 C 19.425781 -35.359375 21.941406 -34.65625 24.046875 -33.25 C 26.148438 -31.84375 27.769531 -29.800781 28.90625 -27.125 C 30.039062 -24.445312 30.601562 -21.207031 30.59375 -17.40625 C 30.582031 -11.664062 29.328125 -7.203125 26.828125 -4.015625 C 24.328125 -0.828125 20.882812 0.765625 16.5 0.765625 Z M 16.5 -5.34375 C 18.5 -5.34375 20.09375 -6.347656 21.28125 -8.359375 C 22.476562 -10.367188 23.070312 -13.382812 23.0625 -17.40625 C 23.0625 -21.375 22.460938 -24.347656 21.265625 -26.328125 C 20.078125 -28.316406 18.488281 -29.3125 16.5 -29.3125 C 14.519531 -29.3125 12.929688 -28.316406 11.734375 -26.328125 C 10.546875 -24.347656 9.945312 -21.375 9.9375 -17.40625 C 9.914062 -13.382812 10.503906 -10.367188 11.703125 -8.359375 C 12.910156 -6.347656 14.507812 -5.34375 16.5 -5.34375 Z M 16.5 -5.34375 "/></g></g></g><g fill="#fafafa" fill-opacity="1"><g transform="translate(1210.229648, 388.919018)"><g><path d="M 16.5 0.765625 C 13.570312 0.753906 11.054688 0.0351562 8.953125 -1.390625 C 6.847656 -2.828125 5.226562 -4.898438 4.09375 -7.609375 C 2.96875 -10.328125 2.410156 -13.59375 2.421875 -17.40625 C 2.429688 -23.125 3.6875 -27.546875 6.1875 -30.671875 C 8.695312 -33.796875 12.132812 -35.359375 16.5 -35.359375 C 19.425781 -35.359375 21.941406 -34.65625 24.046875 -33.25 C 26.148438 -31.84375 27.769531 -29.800781 28.90625 -27.125 C 30.039062 -24.445312 30.601562 -21.207031 30.59375 -17.40625 C 30.582031 -11.664062 29.328125 -7.203125 26.828125 -4.015625 C 24.328125 -0.828125 20.882812 0.765625 16.5 0.765625 Z M 16.5 -5.34375 C 18.5 -5.34375 20.09375 -6.347656 21.28125 -8.359375 C 22.476562 -10.367188 23.070312 -13.382812 23.0625 -17.40625 C 23.0625 -21.375 22.460938 -24.347656 21.265625 -26.328125 C 20.078125 -28.316406 18.488281 -29.3125 16.5 -29.3125 C 14.519531 -29.3125 12.929688 -28.316406 11.734375 -26.328125 C 10.546875 -24.347656 9.945312 -21.375 9.9375 -17.40625 C 9.914062 -13.382812 10.503906 -10.367188 11.703125 -8.359375 C 12.910156 -6.347656 14.507812 -5.34375 16.5 -5.34375 Z M 16.5 -5.34375 "/></g></g></g><g fill="#fafafa" fill-opacity="1"><g transform="translate(1243.239207, 388.919018)"><g><path d="M 13.078125 -2.0625 L 13.078125 -10.9375 L 4.203125 -10.9375 L 4.203125 -17.03125 L 13.078125 -17.03125 L 13.078125 -25.90625 L 19.1875 -25.90625 L 19.1875 -17.03125 L 28.0625 -17.03125 L 28.0625 -10.9375 L 19.1875 -10.9375 L 19.1875 -2.0625 Z M 13.078125 -2.0625 "/></g></g></g><g fill="#fafafa" fill-opacity="1"><g transform="translate(1171.128182, 434.49387)"><g><path d="M 15.015625 -30.828125 L 21.46875 -30.828125 L 21.46875 -9.328125 C 21.46875 -7.347656 21.019531 -5.625 20.125 -4.15625 C 19.238281 -2.695312 18.007812 -1.566406 16.4375 -0.765625 C 14.863281 0.0234375 13.03125 0.421875 10.9375 0.421875 C 9.082031 0.421875 7.398438 0.09375 5.890625 -0.5625 C 4.378906 -1.226562 3.179688 -2.234375 2.296875 -3.578125 C 1.421875 -4.921875 0.988281 -6.617188 1 -8.671875 L 7.484375 -8.671875 C 7.503906 -7.441406 7.859375 -6.488281 8.546875 -5.8125 C 9.234375 -5.132812 10.144531 -4.796875 11.28125 -4.796875 C 13.757812 -4.796875 15.003906 -6.304688 15.015625 -9.328125 Z M 15.015625 -30.828125 "/></g></g></g><g fill="#fafafa" fill-opacity="1"><g transform="translate(1195.288404, 434.49387)"><g><path d="M 13 0.453125 C 10.664062 0.453125 8.644531 -0.046875 6.9375 -1.046875 C 5.238281 -2.046875 3.925781 -3.441406 3 -5.234375 C 2.082031 -7.023438 1.625 -9.101562 1.625 -11.46875 C 1.625 -13.851562 2.082031 -15.941406 3 -17.734375 C 3.925781 -19.523438 5.238281 -20.921875 6.9375 -21.921875 C 8.644531 -22.921875 10.664062 -23.421875 13 -23.421875 C 15.34375 -23.421875 17.363281 -22.921875 19.0625 -21.921875 C 20.757812 -20.921875 22.070312 -19.523438 23 -17.734375 C 23.925781 -15.941406 24.390625 -13.851562 24.390625 -11.46875 C 24.390625 -9.101562 23.925781 -7.023438 23 -5.234375 C 22.070312 -3.441406 20.757812 -2.046875 19.0625 -1.046875 C 17.363281 -0.046875 15.34375 0.453125 13 0.453125 Z M 13.03125 -4.515625 C 14.625 -4.515625 15.828125 -5.175781 16.640625 -6.5 C 17.460938 -7.820312 17.875 -9.492188 17.875 -11.515625 C 17.875 -13.535156 17.460938 -15.207031 16.640625 -16.53125 C 15.828125 -17.863281 14.625 -18.53125 13.03125 -18.53125 C 11.414062 -18.53125 10.195312 -17.863281 9.375 -16.53125 C 8.550781 -15.207031 8.140625 -13.535156 8.140625 -11.515625 C 8.140625 -9.492188 8.550781 -7.820312 9.375 -6.5 C 10.195312 -5.175781 11.414062 -4.515625 13.03125 -4.515625 Z M 13.03125 -4.515625 "/></g></g></g><g fill="#fafafa" fill-opacity="1"><g transform="translate(1221.300156, 434.49387)"><g><path d="M 2.671875 0 L 2.671875 -30.828125 L 9.09375 -30.828125 L 9.09375 -19.234375 L 9.28125 -19.234375 C 9.570312 -19.867188 9.984375 -20.503906 10.515625 -21.140625 C 11.046875 -21.785156 11.75 -22.328125 12.625 -22.765625 C 13.5 -23.203125 14.578125 -23.421875 15.859375 -23.421875 C 17.554688 -23.421875 19.113281 -22.976562 20.53125 -22.09375 C 21.945312 -21.21875 23.082031 -19.898438 23.9375 -18.140625 C 24.800781 -16.378906 25.234375 -14.175781 25.234375 -11.53125 C 25.234375 -8.945312 24.816406 -6.769531 23.984375 -5 C 23.148438 -3.226562 22.023438 -1.890625 20.609375 -0.984375 C 19.191406 -0.078125 17.601562 0.375 15.84375 0.375 C 14.601562 0.375 13.546875 0.171875 12.671875 -0.234375 C 11.804688 -0.648438 11.097656 -1.171875 10.546875 -1.796875 C 10.003906 -2.421875 9.582031 -3.054688 9.28125 -3.703125 L 9 -3.703125 L 9 0 Z M 8.953125 -11.5625 C 8.953125 -9.5 9.375 -7.84375 10.21875 -6.59375 C 11.070312 -5.351562 12.269531 -4.734375 13.8125 -4.734375 C 15.394531 -4.734375 16.601562 -5.363281 17.4375 -6.625 C 18.269531 -7.894531 18.6875 -9.539062 18.6875 -11.5625 C 18.6875 -13.570312 18.269531 -15.195312 17.4375 -16.4375 C 16.613281 -17.6875 15.40625 -18.3125 13.8125 -18.3125 C 12.257812 -18.3125 11.0625 -17.703125 10.21875 -16.484375 C 9.375 -15.265625 8.953125 -13.625 8.953125 -11.5625 Z M 8.953125 -11.5625 "/></g></g></g><g fill="#fafafa" fill-opacity="1"><g transform="translate(1134.111987, 479.551064)"><g><path d="M 2.671875 0 L 2.671875 -30.828125 L 14.84375 -30.828125 C 17.175781 -30.828125 19.164062 -30.382812 20.8125 -29.5 C 22.457031 -28.613281 23.710938 -27.382812 24.578125 -25.8125 C 25.453125 -24.238281 25.890625 -22.425781 25.890625 -20.375 C 25.890625 -18.332031 25.445312 -16.53125 24.5625 -14.96875 C 23.6875 -13.40625 22.410156 -12.1875 20.734375 -11.3125 C 19.066406 -10.4375 17.046875 -10 14.671875 -10 L 9.203125 -10 L 9.203125 0 Z M 9.203125 -15.21875 L 13.625 -15.21875 C 15.488281 -15.21875 16.878906 -15.695312 17.796875 -16.65625 C 18.710938 -17.613281 19.171875 -18.851562 19.171875 -20.375 C 19.171875 -21.914062 18.710938 -23.15625 17.796875 -24.09375 C 16.878906 -25.03125 15.476562 -25.5 13.59375 -25.5 L 9.203125 -25.5 Z M 9.203125 -15.21875 "/></g></g></g><g fill="#fafafa" fill-opacity="1"><g transform="translate(1161.568837, 479.551064)"><g><path d="M 2.5625 0 L 2.5625 -23.125 L 8.78125 -23.125 L 8.78125 -19.09375 L 9.015625 -19.09375 C 9.441406 -20.519531 10.144531 -21.601562 11.125 -22.34375 C 12.113281 -23.082031 13.265625 -23.453125 14.578125 -23.453125 C 15.191406 -23.453125 15.765625 -23.375 16.296875 -23.21875 C 16.828125 -23.070312 17.304688 -22.867188 17.734375 -22.609375 L 15.8125 -17.3125 C 15.507812 -17.457031 15.175781 -17.582031 14.8125 -17.6875 C 14.457031 -17.800781 14.0625 -17.859375 13.625 -17.859375 C 12.332031 -17.859375 11.234375 -17.414062 10.328125 -16.53125 C 9.429688 -15.644531 8.976562 -14.492188 8.96875 -13.078125 L 8.96875 0 Z M 2.5625 0 "/></g></g></g><g fill="#fafafa" fill-opacity="1"><g transform="translate(1179.737923, 479.551064)"><g><path d="M 13 0.453125 C 10.664062 0.453125 8.644531 -0.046875 6.9375 -1.046875 C 5.238281 -2.046875 3.925781 -3.441406 3 -5.234375 C 2.082031 -7.023438 1.625 -9.101562 1.625 -11.46875 C 1.625 -13.851562 2.082031 -15.941406 3 -17.734375 C 3.925781 -19.523438 5.238281 -20.921875 6.9375 -21.921875 C 8.644531 -22.921875 10.664062 -23.421875 13 -23.421875 C 15.34375 -23.421875 17.363281 -22.921875 19.0625 -21.921875 C 20.757812 -20.921875 22.070312 -19.523438 23 -17.734375 C 23.925781 -15.941406 24.390625 -13.851562 24.390625 -11.46875 C 24.390625 -9.101562 23.925781 -7.023438 23 -5.234375 C 22.070312 -3.441406 20.757812 -2.046875 19.0625 -1.046875 C 17.363281 -0.046875 15.34375 0.453125 13 0.453125 Z M 13.03125 -4.515625 C 14.625 -4.515625 15.828125 -5.175781 16.640625 -6.5 C 17.460938 -7.820312 17.875 -9.492188 17.875 -11.515625 C 17.875 -13.535156 17.460938 -15.207031 16.640625 -16.53125 C 15.828125 -17.863281 14.625 -18.53125 13.03125 -18.53125 C 11.414062 -18.53125 10.195312 -17.863281 9.375 -16.53125 C 8.550781 -15.207031 8.140625 -13.535156 8.140625 -11.515625 C 8.140625 -9.492188 8.550781 -7.820312 9.375 -6.5 C 10.195312 -5.175781 11.414062 -4.515625 13.03125 -4.515625 Z M 13.03125 -4.515625 "/></g></g></g><g fill="#fafafa" fill-opacity="1"><g transform="translate(1205.749675, 479.551064)"><g><path d="M 15.203125 -23.125 L 15.203125 -18.3125 L 10.609375 -18.3125 L 10.609375 0 L 4.203125 0 L 4.203125 -18.3125 L 0.9375 -18.3125 L 0.9375 -23.125 L 4.203125 -23.125 L 4.203125 -24.796875 C 4.203125 -27.316406 4.921875 -29.191406 6.359375 -30.421875 C 7.796875 -31.660156 9.601562 -32.28125 11.78125 -32.28125 C 12.769531 -32.28125 13.671875 -32.203125 14.484375 -32.046875 C 15.304688 -31.898438 15.914062 -31.765625 16.3125 -31.640625 L 15.1875 -26.828125 C 14.9375 -26.910156 14.625 -26.984375 14.25 -27.046875 C 13.882812 -27.117188 13.507812 -27.15625 13.125 -27.15625 C 12.1875 -27.15625 11.53125 -26.9375 11.15625 -26.5 C 10.789062 -26.0625 10.609375 -25.453125 10.609375 -24.671875 L 10.609375 -23.125 Z M 15.203125 -23.125 "/></g></g></g><g fill="#fafafa" fill-opacity="1"><g transform="translate(1222.308079, 479.551064)"><g><path d="M 2.5625 0 L 2.5625 -23.125 L 8.96875 -23.125 L 8.96875 0 Z M 5.78125 -26.109375 C 4.832031 -26.109375 4.015625 -26.425781 3.328125 -27.0625 C 2.648438 -27.695312 2.3125 -28.460938 2.3125 -29.359375 C 2.3125 -30.242188 2.648438 -31.003906 3.328125 -31.640625 C 4.015625 -32.273438 4.832031 -32.59375 5.78125 -32.59375 C 6.738281 -32.59375 7.554688 -32.273438 8.234375 -31.640625 C 8.921875 -31.003906 9.265625 -30.242188 9.265625 -29.359375 C 9.265625 -28.460938 8.921875 -27.695312 8.234375 -27.0625 C 7.554688 -26.425781 6.738281 -26.109375 5.78125 -26.109375 Z M 5.78125 -26.109375 "/></g></g></g><g fill="#fafafa" fill-opacity="1"><g transform="translate(1233.838755, 479.551064)"><g><path d="M 8.96875 -30.828125 L 8.96875 0 L 2.5625 0 L 2.5625 -30.828125 Z M 8.96875 -30.828125 "/></g></g></g><g fill="#fafafa" fill-opacity="1"><g transform="translate(1245.369431, 479.551064)"><g><path d="M 13.09375 0.453125 C 10.726562 0.453125 8.6875 -0.03125 6.96875 -1 C 5.25 -1.96875 3.925781 -3.34375 3 -5.125 C 2.082031 -6.90625 1.625 -9.015625 1.625 -11.453125 C 1.625 -13.828125 2.082031 -15.910156 3 -17.703125 C 3.925781 -19.503906 5.226562 -20.90625 6.90625 -21.90625 C 8.59375 -22.914062 10.570312 -23.421875 12.84375 -23.421875 C 14.875 -23.421875 16.707031 -22.988281 18.34375 -22.125 C 19.988281 -21.257812 21.289062 -19.957031 22.25 -18.21875 C 23.21875 -16.476562 23.703125 -14.300781 23.703125 -11.6875 L 23.703125 -9.921875 L 7.96875 -9.921875 L 7.96875 -9.90625 C 7.96875 -8.175781 8.4375 -6.8125 9.375 -5.8125 C 10.320312 -4.820312 11.597656 -4.328125 13.203125 -4.328125 C 14.273438 -4.328125 15.203125 -4.550781 15.984375 -5 C 16.765625 -5.457031 17.316406 -6.128906 17.640625 -7.015625 L 23.578125 -6.625 C 23.117188 -4.476562 21.972656 -2.757812 20.140625 -1.46875 C 18.304688 -0.1875 15.957031 0.453125 13.09375 0.453125 Z M 7.96875 -13.890625 L 17.671875 -13.890625 C 17.660156 -15.265625 17.21875 -16.398438 16.34375 -17.296875 C 15.46875 -18.191406 14.335938 -18.640625 12.953125 -18.640625 C 11.523438 -18.640625 10.351562 -18.175781 9.4375 -17.25 C 8.519531 -16.320312 8.03125 -15.203125 7.96875 -13.890625 Z M 7.96875 -13.890625 "/></g></g></g><g fill="#fafafa" fill-opacity="1"><g transform="translate(1270.703797, 479.551064)"><g><path d="M 21.796875 -16.53125 L 15.921875 -16.171875 C 15.765625 -16.910156 15.359375 -17.546875 14.703125 -18.078125 C 14.054688 -18.609375 13.175781 -18.875 12.0625 -18.875 C 11.0625 -18.875 10.21875 -18.664062 9.53125 -18.25 C 8.84375 -17.832031 8.503906 -17.28125 8.515625 -16.59375 C 8.503906 -16.039062 8.722656 -15.570312 9.171875 -15.1875 C 9.617188 -14.800781 10.378906 -14.492188 11.453125 -14.265625 L 15.640625 -13.421875 C 20.085938 -12.515625 22.316406 -10.429688 22.328125 -7.171875 C 22.328125 -5.648438 21.878906 -4.316406 20.984375 -3.171875 C 20.097656 -2.023438 18.878906 -1.132812 17.328125 -0.5 C 15.785156 0.132812 14.019531 0.453125 12.03125 0.453125 C 8.96875 0.453125 6.523438 -0.1875 4.703125 -1.46875 C 2.890625 -2.75 1.832031 -4.492188 1.53125 -6.703125 L 7.84375 -7.03125 C 8.039062 -6.082031 8.503906 -5.367188 9.234375 -4.890625 C 9.960938 -4.410156 10.898438 -4.171875 12.046875 -4.171875 C 13.171875 -4.171875 14.078125 -4.390625 14.765625 -4.828125 C 15.453125 -5.273438 15.800781 -5.835938 15.8125 -6.515625 C 15.78125 -7.660156 14.789062 -8.429688 12.84375 -8.828125 L 8.84375 -9.625 C 4.363281 -10.507812 2.132812 -12.710938 2.15625 -16.234375 C 2.144531 -18.453125 3.035156 -20.203125 4.828125 -21.484375 C 6.617188 -22.773438 8.992188 -23.421875 11.953125 -23.421875 C 14.867188 -23.421875 17.164062 -22.800781 18.84375 -21.5625 C 20.53125 -20.332031 21.515625 -18.65625 21.796875 -16.53125 Z M 21.796875 -16.53125 "/></g></g></g></svg>