<svg xmlns="http://www.w3.org/2000/svg" xmlns:xlink="http://www.w3.org/1999/xlink" width="3240" zoomAndPan="magnify" viewBox="0 0 2430 809.999993" height="1080" preserveAspectRatio="xMidYMid meet" version="1.0"><defs><g/><clipPath id="9dc03bc1c1"><path d="M 1070.128906 280.503906 L 1359.976562 280.503906 L 1359.976562 529.496094 L 1070.128906 529.496094 Z M 1070.128906 280.503906 " clip-rule="nonzero"/></clipPath><clipPath id="591b4a99cf"><path d="M 1359.871094 405 L 1287.433594 529.496094 L 1142.566406 529.496094 L 1070.128906 405 L 1142.566406 280.503906 L 1287.433594 280.503906 Z M 1359.871094 405 " clip-rule="nonzero"/></clipPath><clipPath id="12436f8697"><path d="M 1070.132812 280.503906 L 1359.863281 280.503906 L 1359.863281 529.488281 L 1070.132812 529.488281 Z M 1070.132812 280.503906 " clip-rule="nonzero"/></clipPath><clipPath id="0351911de4"><path d="M 1359.863281 404.996094 L 1287.433594 529.488281 L 1142.566406 529.488281 L 1070.132812 404.996094 L 1142.566406 280.503906 L 1287.433594 280.503906 Z M 1359.863281 404.996094 " clip-rule="nonzero"/></clipPath></defs><rect x="-243" width="2916" fill="#ffffff" y="-80.999999" height="971.999992" fill-opacity="1"/><rect x="-243" width="2916" fill="#ffffff" y="-80.999999" height="971.999992" fill-opacity="1"/><g clip-path="url(#9dc03bc1c1)"><g clip-path="url(#591b4a99cf)"><path fill="#56b2bb" d="M 1070.128906 280.503906 L 1359.976562 280.503906 L 1359.976562 529.496094 L 1070.128906 529.496094 Z M 1070.128906 280.503906 " fill-opacity="1" fill-rule="nonzero"/></g></g><g clip-path="url(#12436f8697)"><g clip-path="url(#0351911de4)"><path stroke-linecap="butt" transform="matrix(0.678843, 0, 0, 0.678843, 1070.134301, 280.502262)" fill="none" stroke-linejoin="miter" d="M 426.798357 183.39126 L 320.102535 366.780098 L 106.699384 366.780098 L -0.00219221 183.39126 L 106.699384 0.0024223 L 320.102535 0.0024223 Z M 426.798357 183.39126 " stroke="#0a0f22" stroke-width="13.257856" stroke-opacity="1" stroke-miterlimit="4"/></g></g><g fill="#fafafa" fill-opacity="1"><g transform="translate(1131.610015, 423.196957)"><g><path d="M 7.859375 0 L 0.984375 0 L 11.453125 -30.3125 L 19.71875 -30.3125 L 30.15625 0 L 23.296875 0 L 21.046875 -6.90625 L 10.109375 -6.90625 Z M 11.734375 -11.90625 L 19.4375 -11.90625 L 15.703125 -23.375 L 15.46875 -23.375 Z M 11.734375 -11.90625 "/></g></g></g><g fill="#fafafa" fill-opacity="1"><g transform="translate(1162.777385, 423.196957)"><g><path d="M 23.703125 -22.734375 L 15.765625 0 L 8.65625 0 L 0.703125 -22.734375 L 7.375 -22.734375 L 12.09375 -6.46875 L 12.328125 -6.46875 L 17.03125 -22.734375 Z M 23.703125 -22.734375 "/></g></g></g><g fill="#fafafa" fill-opacity="1"><g transform="translate(1187.196265, 423.196957)"><g><path d="M 12.875 0.4375 C 10.539062 0.4375 8.53125 -0.0351562 6.84375 -0.984375 C 5.164062 -1.929688 3.867188 -3.28125 2.953125 -5.03125 C 2.046875 -6.789062 1.59375 -8.867188 1.59375 -11.265625 C 1.59375 -13.597656 2.046875 -15.644531 2.953125 -17.40625 C 3.867188 -19.175781 5.148438 -20.554688 6.796875 -21.546875 C 8.453125 -22.535156 10.394531 -23.03125 12.625 -23.03125 C 14.625 -23.03125 16.429688 -22.601562 18.046875 -21.75 C 19.660156 -20.90625 20.941406 -19.625 21.890625 -17.90625 C 22.835938 -16.195312 23.3125 -14.054688 23.3125 -11.484375 L 23.3125 -9.75 L 7.828125 -9.75 L 7.828125 -9.734375 C 7.828125 -8.035156 8.289062 -6.695312 9.21875 -5.71875 C 10.144531 -4.75 11.398438 -4.265625 12.984375 -4.265625 C 14.035156 -4.265625 14.945312 -4.484375 15.71875 -4.921875 C 16.488281 -5.367188 17.03125 -6.023438 17.34375 -6.890625 L 23.171875 -6.515625 C 22.734375 -4.398438 21.609375 -2.710938 19.796875 -1.453125 C 17.992188 -0.191406 15.6875 0.4375 12.875 0.4375 Z M 7.828125 -13.65625 L 17.375 -13.65625 C 17.363281 -15.007812 16.925781 -16.125 16.0625 -17 C 15.207031 -17.875 14.09375 -18.3125 12.71875 -18.3125 C 11.320312 -18.3125 10.175781 -17.859375 9.28125 -16.953125 C 8.382812 -16.046875 7.898438 -14.945312 7.828125 -13.65625 Z M 7.828125 -13.65625 "/></g></g></g><g fill="#fafafa" fill-opacity="1"><g transform="translate(1212.103525, 423.196957)"><g><path d="M 2.515625 0 L 2.515625 -22.734375 L 8.625 -22.734375 L 8.625 -18.765625 L 8.859375 -18.765625 C 9.273438 -20.171875 9.96875 -21.238281 10.9375 -21.96875 C 11.914062 -22.695312 13.046875 -23.0625 14.328125 -23.0625 C 14.929688 -23.0625 15.492188 -22.984375 16.015625 -22.828125 C 16.546875 -22.679688 17.019531 -22.484375 17.4375 -22.234375 L 15.53125 -17.015625 C 15.238281 -17.160156 14.914062 -17.285156 14.5625 -17.390625 C 14.21875 -17.492188 13.828125 -17.546875 13.390625 -17.546875 C 12.117188 -17.546875 11.039062 -17.113281 10.15625 -16.25 C 9.269531 -15.382812 8.820312 -14.253906 8.8125 -12.859375 L 8.8125 0 Z M 2.515625 0 "/></g></g></g><g fill="#fafafa" fill-opacity="1"><g transform="translate(1229.966311, 423.196957)"><g><path d="M 9 0.421875 C 6.820312 0.421875 5.019531 -0.140625 3.59375 -1.265625 C 2.164062 -2.398438 1.453125 -4.09375 1.453125 -6.34375 C 1.453125 -8.039062 1.847656 -9.375 2.640625 -10.34375 C 3.441406 -11.3125 4.488281 -12.019531 5.78125 -12.46875 C 7.082031 -12.914062 8.484375 -13.207031 9.984375 -13.34375 C 11.960938 -13.539062 13.375 -13.75 14.21875 -13.96875 C 15.070312 -14.1875 15.5 -14.660156 15.5 -15.390625 L 15.5 -15.484375 C 15.5 -16.421875 15.203125 -17.144531 14.609375 -17.65625 C 14.023438 -18.164062 13.195312 -18.421875 12.125 -18.421875 C 10.988281 -18.421875 10.082031 -18.171875 9.40625 -17.671875 C 8.738281 -17.179688 8.296875 -16.554688 8.078125 -15.796875 L 2.25 -16.28125 C 2.6875 -18.351562 3.765625 -19.992188 5.484375 -21.203125 C 7.203125 -22.421875 9.425781 -23.03125 12.15625 -23.03125 C 13.84375 -23.03125 15.421875 -22.757812 16.890625 -22.21875 C 18.359375 -21.6875 19.539062 -20.851562 20.4375 -19.71875 C 21.34375 -18.59375 21.796875 -17.128906 21.796875 -15.328125 L 21.796875 0 L 15.8125 0 L 15.8125 -3.15625 L 15.640625 -3.15625 C 15.085938 -2.09375 14.257812 -1.226562 13.15625 -0.5625 C 12.0625 0.09375 10.675781 0.421875 9 0.421875 Z M 10.796875 -3.921875 C 12.179688 -3.921875 13.316406 -4.320312 14.203125 -5.125 C 15.085938 -5.925781 15.53125 -6.925781 15.53125 -8.125 L 15.53125 -10.53125 C 15.289062 -10.363281 14.910156 -10.21875 14.390625 -10.09375 C 13.867188 -9.96875 13.316406 -9.859375 12.734375 -9.765625 C 12.148438 -9.671875 11.625 -9.585938 11.15625 -9.515625 C 10.050781 -9.359375 9.160156 -9.046875 8.484375 -8.578125 C 7.804688 -8.117188 7.46875 -7.445312 7.46875 -6.5625 C 7.46875 -5.6875 7.78125 -5.023438 8.40625 -4.578125 C 9.039062 -4.140625 9.835938 -3.921875 10.796875 -3.921875 Z M 10.796875 -3.921875 "/></g></g></g><g fill="#fafafa" fill-opacity="1"><g transform="translate(1254.148404, 423.196957)"><g><path d="M 12.75 8.84375 C 9.695312 8.84375 7.296875 8.238281 5.546875 7.03125 C 3.804688 5.832031 2.75 4.375 2.375 2.65625 L 8.203125 1.875 C 8.453125 2.488281 8.945312 3.050781 9.6875 3.5625 C 10.4375 4.070312 11.507812 4.328125 12.90625 4.328125 C 14.28125 4.328125 15.410156 4 16.296875 3.34375 C 17.191406 2.695312 17.640625 1.628906 17.640625 0.140625 L 17.640625 -4.03125 L 17.375 -4.03125 C 16.957031 -3.09375 16.222656 -2.238281 15.171875 -1.46875 C 14.128906 -0.707031 12.703125 -0.328125 10.890625 -0.328125 C 9.179688 -0.328125 7.628906 -0.722656 6.234375 -1.515625 C 4.835938 -2.316406 3.726562 -3.535156 2.90625 -5.171875 C 2.082031 -6.816406 1.671875 -8.894531 1.671875 -11.40625 C 1.671875 -13.988281 2.09375 -16.140625 2.9375 -17.859375 C 3.78125 -19.578125 4.898438 -20.867188 6.296875 -21.734375 C 7.691406 -22.597656 9.21875 -23.03125 10.875 -23.03125 C 12.144531 -23.03125 13.207031 -22.8125 14.0625 -22.375 C 14.925781 -21.945312 15.625 -21.414062 16.15625 -20.78125 C 16.6875 -20.15625 17.09375 -19.53125 17.375 -18.90625 L 17.609375 -18.90625 L 17.609375 -22.734375 L 23.875 -22.734375 L 23.875 0.21875 C 23.875 2.101562 23.394531 3.6875 22.4375 4.96875 C 21.488281 6.25 20.179688 7.210938 18.515625 7.859375 C 16.847656 8.515625 14.925781 8.84375 12.75 8.84375 Z M 12.890625 -5.0625 C 14.410156 -5.0625 15.585938 -5.625 16.421875 -6.75 C 17.253906 -7.875 17.671875 -9.4375 17.671875 -11.4375 C 17.671875 -13.425781 17.253906 -15.019531 16.421875 -16.21875 C 15.597656 -17.414062 14.421875 -18.015625 12.890625 -18.015625 C 11.328125 -18.015625 10.140625 -17.398438 9.328125 -16.171875 C 8.515625 -14.953125 8.109375 -13.375 8.109375 -11.4375 C 8.109375 -9.476562 8.515625 -7.925781 9.328125 -6.78125 C 10.148438 -5.632812 11.335938 -5.0625 12.890625 -5.0625 Z M 12.890625 -5.0625 "/></g></g></g><g fill="#fafafa" fill-opacity="1"><g transform="translate(1280.5356, 423.196957)"><g><path d="M 12.875 0.4375 C 10.539062 0.4375 8.53125 -0.0351562 6.84375 -0.984375 C 5.164062 -1.929688 3.867188 -3.28125 2.953125 -5.03125 C 2.046875 -6.789062 1.59375 -8.867188 1.59375 -11.265625 C 1.59375 -13.597656 2.046875 -15.644531 2.953125 -17.40625 C 3.867188 -19.175781 5.148438 -20.554688 6.796875 -21.546875 C 8.453125 -22.535156 10.394531 -23.03125 12.625 -23.03125 C 14.625 -23.03125 16.429688 -22.601562 18.046875 -21.75 C 19.660156 -20.90625 20.941406 -19.625 21.890625 -17.90625 C 22.835938 -16.195312 23.3125 -14.054688 23.3125 -11.484375 L 23.3125 -9.75 L 7.828125 -9.75 L 7.828125 -9.734375 C 7.828125 -8.035156 8.289062 -6.695312 9.21875 -5.71875 C 10.144531 -4.75 11.398438 -4.265625 12.984375 -4.265625 C 14.035156 -4.265625 14.945312 -4.484375 15.71875 -4.921875 C 16.488281 -5.367188 17.03125 -6.023438 17.34375 -6.890625 L 23.171875 -6.515625 C 22.734375 -4.398438 21.609375 -2.710938 19.796875 -1.453125 C 17.992188 -0.191406 15.6875 0.4375 12.875 0.4375 Z M 7.828125 -13.65625 L 17.375 -13.65625 C 17.363281 -15.007812 16.925781 -16.125 16.0625 -17 C 15.207031 -17.875 14.09375 -18.3125 12.71875 -18.3125 C 11.320312 -18.3125 10.175781 -17.859375 9.28125 -16.953125 C 8.382812 -16.046875 7.898438 -14.945312 7.828125 -13.65625 Z M 7.828125 -13.65625 "/></g></g></g><g fill="#fafafa" fill-opacity="1"><g transform="translate(1136.415881, 463.461875)"><g><path d="M 19.078125 -21.59375 C 18.953125 -22.78125 18.4375 -23.703125 17.53125 -24.359375 C 16.632812 -25.023438 15.421875 -25.359375 13.890625 -25.359375 C 12.328125 -25.359375 11.125 -25.035156 10.28125 -24.390625 C 9.445312 -23.753906 9.03125 -22.945312 9.03125 -21.96875 C 9.007812 -20.882812 9.472656 -20.0625 10.421875 -19.5 C 11.378906 -18.945312 12.515625 -18.519531 13.828125 -18.21875 L 16.546875 -17.5625 C 18.296875 -17.164062 19.851562 -16.59375 21.21875 -15.84375 C 22.59375 -15.09375 23.671875 -14.128906 24.453125 -12.953125 C 25.234375 -11.773438 25.625 -10.34375 25.625 -8.65625 C 25.613281 -5.882812 24.578125 -3.675781 22.515625 -2.03125 C 20.453125 -0.394531 17.566406 0.421875 13.859375 0.421875 C 10.179688 0.421875 7.25 -0.414062 5.0625 -2.09375 C 2.875 -3.769531 1.738281 -6.242188 1.65625 -9.515625 L 7.859375 -9.515625 C 7.960938 -7.992188 8.5625 -6.847656 9.65625 -6.078125 C 10.75 -5.316406 12.128906 -4.9375 13.796875 -4.9375 C 15.421875 -4.9375 16.71875 -5.28125 17.6875 -5.96875 C 18.664062 -6.664062 19.15625 -7.566406 19.15625 -8.671875 C 19.15625 -9.691406 18.707031 -10.476562 17.8125 -11.03125 C 16.925781 -11.59375 15.660156 -12.066406 14.015625 -12.453125 L 10.71875 -13.28125 C 8.15625 -13.894531 6.132812 -14.867188 4.65625 -16.203125 C 3.175781 -17.535156 2.441406 -19.316406 2.453125 -21.546875 C 2.441406 -23.378906 2.929688 -24.984375 3.921875 -26.359375 C 4.921875 -27.734375 6.285156 -28.800781 8.015625 -29.5625 C 9.753906 -30.332031 11.726562 -30.71875 13.9375 -30.71875 C 16.1875 -30.71875 18.148438 -30.332031 19.828125 -29.5625 C 21.515625 -28.789062 22.828125 -27.71875 23.765625 -26.34375 C 24.703125 -24.976562 25.1875 -23.394531 25.21875 -21.59375 Z M 19.078125 -21.59375 "/></g></g></g><g fill="#fafafa" fill-opacity="1"><g transform="translate(1163.705834, 463.461875)"><g><path d="M 14.609375 -22.734375 L 14.609375 -18 L 10.328125 -18 L 10.328125 -6.984375 C 10.328125 -6.117188 10.523438 -5.53125 10.921875 -5.21875 C 11.316406 -4.914062 11.828125 -4.765625 12.453125 -4.765625 C 12.753906 -4.765625 13.050781 -4.789062 13.34375 -4.84375 C 13.644531 -4.894531 13.875 -4.9375 14.03125 -4.96875 L 15.015625 -0.28125 C 14.703125 -0.1875 14.257812 -0.0703125 13.6875 0.0625 C 13.113281 0.195312 12.421875 0.28125 11.609375 0.3125 C 9.316406 0.40625 7.476562 -0.0859375 6.09375 -1.171875 C 4.707031 -2.265625 4.019531 -3.925781 4.03125 -6.15625 L 4.03125 -18 L 0.921875 -18 L 0.921875 -22.734375 L 4.03125 -22.734375 L 4.03125 -28.171875 L 10.328125 -28.171875 L 10.328125 -22.734375 Z M 14.609375 -22.734375 "/></g></g></g><g fill="#fafafa" fill-opacity="1"><g transform="translate(1179.896296, 463.461875)"><g><path d="M 2.515625 0 L 2.515625 -22.734375 L 8.8125 -22.734375 L 8.8125 0 Z M 5.671875 -25.65625 C 4.742188 -25.65625 3.941406 -25.96875 3.265625 -26.59375 C 2.597656 -27.226562 2.265625 -27.984375 2.265625 -28.859375 C 2.265625 -29.734375 2.597656 -30.476562 3.265625 -31.09375 C 3.941406 -31.71875 4.742188 -32.03125 5.671875 -32.03125 C 6.609375 -32.03125 7.410156 -31.71875 8.078125 -31.09375 C 8.753906 -30.476562 9.09375 -29.734375 9.09375 -28.859375 C 9.09375 -27.984375 8.753906 -27.226562 8.078125 -26.59375 C 7.410156 -25.96875 6.609375 -25.65625 5.671875 -25.65625 Z M 5.671875 -25.65625 "/></g></g></g><g fill="#fafafa" fill-opacity="1"><g transform="translate(1191.232574, 463.461875)"><g><path d="M 2.515625 8.53125 L 2.515625 -22.734375 L 8.734375 -22.734375 L 8.734375 -18.90625 L 9.015625 -18.90625 C 9.296875 -19.53125 9.695312 -20.15625 10.21875 -20.78125 C 10.75 -21.414062 11.441406 -21.945312 12.296875 -22.375 C 13.148438 -22.8125 14.210938 -23.03125 15.484375 -23.03125 C 17.148438 -23.03125 18.675781 -22.597656 20.0625 -21.734375 C 21.457031 -20.867188 22.578125 -19.566406 23.421875 -17.828125 C 24.265625 -16.097656 24.6875 -13.929688 24.6875 -11.328125 C 24.6875 -8.796875 24.273438 -6.660156 23.453125 -4.921875 C 22.640625 -3.179688 21.535156 -1.863281 20.140625 -0.96875 C 18.742188 -0.0703125 17.1875 0.375 15.46875 0.375 C 14.238281 0.375 13.195312 0.171875 12.34375 -0.234375 C 11.488281 -0.640625 10.789062 -1.148438 10.25 -1.765625 C 9.71875 -2.378906 9.304688 -3.003906 9.015625 -3.640625 L 8.8125 -3.640625 L 8.8125 8.53125 Z M 8.6875 -11.359375 C 8.6875 -9.335938 9.101562 -7.710938 9.9375 -6.484375 C 10.769531 -5.253906 11.945312 -4.640625 13.46875 -4.640625 C 15.019531 -4.640625 16.203125 -5.265625 17.015625 -6.515625 C 17.835938 -7.765625 18.25 -9.378906 18.25 -11.359375 C 18.25 -13.335938 17.835938 -14.941406 17.015625 -16.171875 C 16.203125 -17.398438 15.019531 -18.015625 13.46875 -18.015625 C 11.9375 -18.015625 10.753906 -17.410156 9.921875 -16.203125 C 9.097656 -15.003906 8.6875 -13.390625 8.6875 -11.359375 Z M 8.6875 -11.359375 "/></g></g></g><g fill="#fafafa" fill-opacity="1"><g transform="translate(1217.590167, 463.461875)"><g><path d="M 12.875 0.4375 C 10.539062 0.4375 8.53125 -0.0351562 6.84375 -0.984375 C 5.164062 -1.929688 3.867188 -3.28125 2.953125 -5.03125 C 2.046875 -6.789062 1.59375 -8.867188 1.59375 -11.265625 C 1.59375 -13.597656 2.046875 -15.644531 2.953125 -17.40625 C 3.867188 -19.175781 5.148438 -20.554688 6.796875 -21.546875 C 8.453125 -22.535156 10.394531 -23.03125 12.625 -23.03125 C 14.625 -23.03125 16.429688 -22.601562 18.046875 -21.75 C 19.660156 -20.90625 20.941406 -19.625 21.890625 -17.90625 C 22.835938 -16.195312 23.3125 -14.054688 23.3125 -11.484375 L 23.3125 -9.75 L 7.828125 -9.75 L 7.828125 -9.734375 C 7.828125 -8.035156 8.289062 -6.695312 9.21875 -5.71875 C 10.144531 -4.75 11.398438 -4.265625 12.984375 -4.265625 C 14.035156 -4.265625 14.945312 -4.484375 15.71875 -4.921875 C 16.488281 -5.367188 17.03125 -6.023438 17.34375 -6.890625 L 23.171875 -6.515625 C 22.734375 -4.398438 21.609375 -2.710938 19.796875 -1.453125 C 17.992188 -0.191406 15.6875 0.4375 12.875 0.4375 Z M 7.828125 -13.65625 L 17.375 -13.65625 C 17.363281 -15.007812 16.925781 -16.125 16.0625 -17 C 15.207031 -17.875 14.09375 -18.3125 12.71875 -18.3125 C 11.320312 -18.3125 10.175781 -17.859375 9.28125 -16.953125 C 8.382812 -16.046875 7.898438 -14.945312 7.828125 -13.65625 Z M 7.828125 -13.65625 "/></g></g></g><g fill="#fafafa" fill-opacity="1"><g transform="translate(1242.497427, 463.461875)"><g><path d="M 8.8125 -13.140625 L 8.8125 0 L 2.515625 0 L 2.515625 -22.734375 L 8.53125 -22.734375 L 8.53125 -18.71875 L 8.796875 -18.71875 C 9.304688 -20.039062 10.148438 -21.085938 11.328125 -21.859375 C 12.503906 -22.640625 13.9375 -23.03125 15.625 -23.03125 C 17.988281 -23.03125 19.882812 -22.265625 21.3125 -20.734375 C 22.75 -19.210938 23.46875 -17.125 23.46875 -14.46875 L 23.46875 0 L 17.171875 0 L 17.171875 -13.34375 C 17.179688 -14.738281 16.820312 -15.828125 16.09375 -16.609375 C 15.375 -17.390625 14.382812 -17.78125 13.125 -17.78125 C 11.851562 -17.78125 10.816406 -17.375 10.015625 -16.5625 C 9.222656 -15.75 8.820312 -14.609375 8.8125 -13.140625 Z M 8.8125 -13.140625 "/></g></g></g><g fill="#fafafa" fill-opacity="1"><g transform="translate(1268.41104, 463.461875)"><g><path d="M 10.890625 0.375 C 9.160156 0.375 7.597656 -0.0703125 6.203125 -0.96875 C 4.816406 -1.863281 3.710938 -3.179688 2.890625 -4.921875 C 2.078125 -6.660156 1.671875 -8.796875 1.671875 -11.328125 C 1.671875 -13.929688 2.09375 -16.097656 2.9375 -17.828125 C 3.78125 -19.566406 4.898438 -20.867188 6.296875 -21.734375 C 7.691406 -22.597656 9.21875 -23.03125 10.875 -23.03125 C 12.144531 -23.03125 13.207031 -22.8125 14.0625 -22.375 C 14.914062 -21.945312 15.601562 -21.414062 16.125 -20.78125 C 16.65625 -20.15625 17.0625 -19.53125 17.34375 -18.90625 L 17.53125 -18.90625 L 17.53125 -30.3125 L 23.828125 -30.3125 L 23.828125 0 L 17.609375 0 L 17.609375 -3.640625 L 17.34375 -3.640625 C 17.0625 -3.003906 16.644531 -2.378906 16.09375 -1.765625 C 15.550781 -1.148438 14.851562 -0.640625 14 -0.234375 C 13.144531 0.171875 12.109375 0.375 10.890625 0.375 Z M 12.890625 -4.640625 C 14.410156 -4.640625 15.585938 -5.253906 16.421875 -6.484375 C 17.253906 -7.710938 17.671875 -9.335938 17.671875 -11.359375 C 17.671875 -13.390625 17.253906 -15.003906 16.421875 -16.203125 C 15.597656 -17.410156 14.421875 -18.015625 12.890625 -18.015625 C 11.328125 -18.015625 10.140625 -17.398438 9.328125 -16.171875 C 8.515625 -14.941406 8.109375 -13.335938 8.109375 -11.359375 C 8.109375 -9.378906 8.515625 -7.765625 9.328125 -6.515625 C 10.148438 -5.265625 11.335938 -4.640625 12.890625 -4.640625 Z M 12.890625 -4.640625 "/></g></g></g><g fill="#fafafa" fill-opacity="1"><g transform="translate(1131.332345, 373.265627)"><g><path d="M 9.828125 -32.921875 L 9.828125 0 L 2.859375 0 L 2.859375 -32.921875 Z M 9.828125 -32.921875 "/></g></g></g><g fill="#fafafa" fill-opacity="1"><g transform="translate(1144.028244, 373.265627)"><g><path d="M 30.390625 -32.921875 L 30.390625 0 L 24.390625 0 L 10.0625 -20.71875 L 9.828125 -20.71875 L 9.828125 0 L 2.859375 0 L 2.859375 -32.921875 L 8.96875 -32.921875 L 23.171875 -12.21875 L 23.46875 -12.21875 L 23.46875 -32.921875 Z M 30.390625 -32.921875 "/></g></g></g><g fill="#fafafa" fill-opacity="1"><g transform="translate(1177.294716, 373.265627)"><g><path d="M 2.859375 0 L 2.859375 -32.921875 L 15.84375 -32.921875 C 19.582031 -32.921875 22.484375 -31.941406 24.546875 -29.984375 C 26.609375 -28.035156 27.640625 -25.429688 27.640625 -22.171875 C 27.640625 -19.921875 27.140625 -17.992188 26.140625 -16.390625 C 25.140625 -14.796875 23.703125 -13.597656 21.828125 -12.796875 L 28.828125 0 L 21.140625 0 L 14.90625 -11.671875 L 9.828125 -11.671875 L 9.828125 0 Z M 9.828125 -17.265625 L 14.546875 -17.265625 C 18.503906 -17.265625 20.484375 -18.898438 20.484375 -22.171875 C 20.484375 -25.546875 18.492188 -27.234375 14.515625 -27.234375 L 9.828125 -27.234375 Z M 9.828125 -17.265625 "/></g></g></g><g fill="#fafafa" fill-opacity="1"><g transform="translate(1206.993484, 373.265627)"><g/></g></g><g fill="#fafafa" fill-opacity="1"><g transform="translate(1217.487687, 373.265627)"><g><path d="M 16.296875 -32.921875 L 16.296875 0 L 9.359375 0 L 9.359375 -24.40625 L 9.046875 -24.40625 C 8.691406 -23.851562 7.941406 -23.304688 6.796875 -22.765625 C 5.648438 -22.222656 4.164062 -21.953125 2.34375 -21.953125 L 2.34375 -27.484375 C 3.757812 -27.484375 5 -27.796875 6.0625 -28.421875 C 7.125 -29.054688 7.953125 -29.796875 8.546875 -30.640625 C 9.148438 -31.492188 9.460938 -32.253906 9.484375 -32.921875 Z M 16.296875 -32.921875 "/></g></g></g><g fill="#fafafa" fill-opacity="1"><g transform="translate(1238.942149, 373.265627)"><g><path d="M 2.671875 0 L 2.671875 -5.015625 L 14.390625 -15.859375 C 15.890625 -17.296875 17.03125 -18.546875 17.8125 -19.609375 C 18.59375 -20.671875 18.984375 -21.851562 18.984375 -23.15625 C 18.984375 -24.601562 18.503906 -25.75 17.546875 -26.59375 C 16.585938 -27.4375 15.382812 -27.859375 13.9375 -27.859375 C 12.4375 -27.859375 11.226562 -27.40625 10.3125 -26.5 C 9.394531 -25.59375 8.941406 -24.351562 8.953125 -22.78125 L 2.34375 -22.78125 C 2.34375 -24.9375 2.828125 -26.804688 3.796875 -28.390625 C 4.773438 -29.972656 6.140625 -31.195312 7.890625 -32.0625 C 9.648438 -32.9375 11.679688 -33.375 13.984375 -33.375 C 16.335938 -33.375 18.390625 -32.957031 20.140625 -32.125 C 21.898438 -31.289062 23.265625 -30.140625 24.234375 -28.671875 C 25.210938 -27.210938 25.703125 -25.53125 25.703125 -23.625 C 25.703125 -22.382812 25.453125 -21.15625 24.953125 -19.9375 C 24.460938 -18.726562 23.597656 -17.390625 22.359375 -15.921875 C 21.128906 -14.453125 19.382812 -12.6875 17.125 -10.625 L 12.3125 -5.921875 L 12.3125 -5.6875 L 26.140625 -5.6875 L 26.140625 0 Z M 2.671875 0 "/></g></g></g><g fill="#fafafa" fill-opacity="1"><g transform="translate(1267.45168, 373.265627)"><g><path d="M 2.859375 0 L 2.859375 -32.921875 L 9.828125 -32.921875 L 9.828125 -18.40625 L 10.25 -18.40625 L 22.109375 -32.921875 L 30.4375 -32.921875 L 18.234375 -18.1875 L 30.59375 0 L 22.265625 0 L 13.25 -13.53125 L 9.828125 -9.359375 L 9.828125 0 Z M 2.859375 0 "/></g></g></g></svg>