<svg xmlns="http://www.w3.org/2000/svg" xmlns:xlink="http://www.w3.org/1999/xlink" width="500" zoomAndPan="magnify" viewBox="0 0 375 374.999991" height="500" preserveAspectRatio="xMidYMid meet" version="1.0"><defs><clipPath id="4353010d79"><path d="M 11.789062 37.5 L 363.339844 37.5 L 363.339844 339.503906 L 11.789062 339.503906 Z M 11.789062 37.5 " clip-rule="nonzero"/></clipPath><clipPath id="31390d4b76"><path d="M 363.210938 188.503906 L 275.355469 339.503906 L 99.644531 339.503906 L 11.789062 188.503906 L 99.644531 37.5 L 275.355469 37.5 Z M 363.210938 188.503906 " clip-rule="nonzero"/></clipPath><clipPath id="87ad3b608c"><path d="M 11.789062 37.5 L 363.210938 37.5 L 363.210938 339.503906 L 11.789062 339.503906 Z M 11.789062 37.5 " clip-rule="nonzero"/></clipPath><clipPath id="ae91f1e310"><path d="M 363.210938 188.5 L 275.355469 339.503906 L 99.644531 339.503906 L 11.789062 188.5 L 99.644531 37.5 L 275.355469 37.5 Z M 363.210938 188.5 " clip-rule="nonzero"/></clipPath></defs><g clip-path="url(#4353010d79)"><g clip-path="url(#31390d4b76)"><path fill="#56b2bb" d="M 11.789062 37.5 L 363.339844 37.5 L 363.339844 339.503906 L 11.789062 339.503906 Z M 11.789062 37.5 " fill-opacity="1" fill-rule="nonzero"/></g></g><g clip-path="url(#87ad3b608c)"><g clip-path="url(#ae91f1e310)"><path stroke-linecap="butt" transform="matrix(0.75, 0, 0, 0.75, 11.787574, 37.500364)" fill="none" stroke-linejoin="miter" d="M 468.564545 201.332874 L 351.423905 402.671442 L 117.142625 402.671442 L 0.00198471 201.332874 L 117.142625 -0.000485037 L 351.423905 -0.000485037 Z M 468.564545 201.332874 " stroke="#0a0f22" stroke-width="12" stroke-opacity="1" stroke-miterlimit="4"/></g></g></svg>